# 3ds Max Wavefront OBJ Exporter v0.97b - (c)2007 guruware
# File Created: 11.01.2014 15:28:28

mtllib hemis.mtl

#
# object GeoSphere001
#

v  0.0000 0.0000 2.0000
v  0.5465 0.0000 1.9239
v  0.1689 0.5198 1.9239
v  1.0515 0.0000 1.7013
v  0.7236 0.5257 1.7889
v  0.3249 1.0000 1.7013
v  -0.4422 0.3212 1.9239
v  -0.2764 0.8507 1.7889
v  -0.8507 0.6180 1.7013
v  -0.4422 -0.3212 1.9239
v  -0.8944 -0.0000 1.7889
v  -0.8507 -0.6180 1.7013
v  0.1689 -0.5198 1.9239
v  -0.2764 -0.8507 1.7889
v  0.3249 -1.0000 1.7013
v  0.7236 -0.5257 1.7889
v  1.3764 1.0000 1.0515
v  0.8944 1.0515 1.4472
v  1.2764 0.5257 1.4472
v  -0.5257 1.6180 1.0515
v  -0.7236 1.1756 1.4472
v  -0.1056 1.3764 1.4472
v  -1.7013 -0.0000 1.0515
v  -1.3416 -0.3249 1.4472
v  -1.3416 0.3249 1.4472
v  -0.5257 -1.6180 1.0515
v  -0.1056 -1.3764 1.4472
v  -0.7236 -1.1756 1.4472
v  1.3764 -1.0000 1.0515
v  1.2764 -0.5257 1.4472
v  0.8944 -1.0515 1.4472
v  1.4764 0.0000 1.3492
v  1.6452 -0.5198 1.0114
v  1.7889 0.0000 0.8944
v  1.6452 0.5198 1.0114
v  0.4562 1.4041 1.3492
v  1.0028 1.4041 1.0114
v  0.5528 1.7013 0.8944
v  0.0141 1.7253 1.0114
v  -1.1944 0.8678 1.3492
v  -1.0255 1.3876 1.0114
v  -1.4472 1.0515 0.8944
v  -1.6365 0.5465 1.0114
v  -1.1944 -0.8678 1.3492
v  -1.6365 -0.5465 1.0114
v  -1.4472 -1.0515 0.8944
v  -1.0255 -1.3876 1.0114
v  0.4562 -1.4041 1.3492
v  0.0141 -1.7253 1.0114
v  0.5528 -1.7013 0.8944
v  1.0028 -1.4041 1.0114
v  1.9021 0.6180 0.0000
v  1.7236 0.8507 0.5528
v  1.9185 0.3212 0.4649
v  1.1756 1.6180 0.0000
v  0.8984 1.7253 0.4649
v  1.3416 1.3764 0.5528
v  -0.0000 2.0000 0.0000
v  -0.2764 1.9021 0.5528
v  0.2873 1.9239 0.4649
v  -1.1756 1.6180 0.0000
v  -1.3633 1.3876 0.4649
v  -0.8944 1.7013 0.5528
v  -1.9021 0.6180 0.0000
v  -1.8944 0.3249 0.5528
v  -1.7409 0.8678 0.4649
v  -1.9021 -0.6180 0.0000
v  -1.7409 -0.8678 0.4649
v  -1.8944 -0.3249 0.5528
v  -1.1756 -1.6180 0.0000
v  -0.8944 -1.7013 0.5528
v  -1.3633 -1.3876 0.4649
v  0.0000 -2.0000 0.0000
v  0.2873 -1.9239 0.4649
v  -0.2764 -1.9021 0.5528
v  1.1756 -1.6180 0.0000
v  1.3416 -1.3764 0.5528
v  0.8984 -1.7253 0.4649
v  1.9021 -0.6180 0.0000
v  1.9185 -0.3212 0.4649
v  1.7236 -0.8507 0.5528
v  2.0000 0.0000 0.0000
v  1.6180 1.1756 0.0000
v  0.6180 1.9021 0.0000
v  -0.6180 1.9021 0.0000
v  -1.6180 1.1756 0.0000
v  -2.0000 -0.0000 0.0000
v  -1.6180 -1.1756 0.0000
v  -0.6180 -1.9021 0.0000
v  0.6180 -1.9021 0.0000
v  1.6180 -1.1756 0.0000
# 91 vertices

vn 0.0000 0.0000 1.0000
vn 0.2713 0.0000 0.9625
vn 0.0838 0.2580 0.9625
vn 0.5257 0.0000 0.8507
vn 0.3693 0.2683 0.8897
vn 0.1625 0.5000 0.8507
vn -0.2195 0.1595 0.9625
vn -0.1411 0.4341 0.8897
vn -0.4253 0.3090 0.8507
vn -0.2195 -0.1595 0.9625
vn -0.4565 -0.0000 0.8897
vn -0.4253 -0.3090 0.8507
vn 0.0838 -0.2580 0.9625
vn -0.1411 -0.4341 0.8897
vn 0.1625 -0.5000 0.8507
vn 0.3693 -0.2683 0.8897
vn 0.6882 0.5000 0.5257
vn 0.4501 0.5169 0.7282
vn 0.6306 0.2683 0.7282
vn -0.2629 0.8090 0.5257
vn -0.3525 0.5878 0.7282
vn -0.0603 0.6827 0.7282
vn -0.8507 0.0000 0.5257
vn -0.6679 -0.1536 0.7282
vn -0.6679 0.1536 0.7282
vn -0.2629 -0.8090 0.5257
vn -0.0603 -0.6827 0.7282
vn -0.3525 -0.5878 0.7282
vn 0.6882 -0.5000 0.5257
vn 0.6306 -0.2683 0.7282
vn 0.4501 -0.5169 0.7282
vn 0.7396 0.0000 0.6731
vn 0.8234 -0.2580 0.5054
vn 0.8944 0.0000 0.4472
vn 0.8234 0.2580 0.5054
vn 0.2285 0.7034 0.6731
vn 0.4998 0.7034 0.5054
vn 0.2764 0.8507 0.4472
vn 0.0090 0.8628 0.5054
vn -0.5983 0.4347 0.6731
vn -0.5145 0.6927 0.5054
vn -0.7236 0.5257 0.4472
vn -0.8178 0.2752 0.5054
vn -0.5983 -0.4347 0.6731
vn -0.8178 -0.2752 0.5054
vn -0.7236 -0.5257 0.4472
vn -0.5145 -0.6927 0.5054
vn 0.2285 -0.7034 0.6731
vn 0.0090 -0.8628 0.5054
vn 0.2764 -0.8507 0.4472
vn 0.4998 -0.7034 0.5054
vn 0.9427 0.3148 0.1106
vn 0.8589 0.4341 0.2717
vn 0.9590 0.1595 0.2341
vn 0.5907 0.7993 0.1106
vn 0.4480 0.8628 0.2341
vn 0.6783 0.6827 0.2717
vn -0.0081 0.9938 0.1106
vn -0.1475 0.9510 0.2717
vn 0.1447 0.9614 0.2341
vn -0.5776 0.8088 0.1106
vn -0.6821 0.6927 0.2341
vn -0.4397 0.8561 0.2717
vn -0.9477 0.2994 0.1106
vn -0.9500 0.1536 0.2717
vn -0.8696 0.4347 0.2341
vn -0.9477 -0.2994 0.1106
vn -0.8696 -0.4347 0.2341
vn -0.9500 -0.1536 0.2717
vn -0.5776 -0.8088 0.1106
vn -0.4397 -0.8561 0.2717
vn -0.6821 -0.6927 0.2341
vn -0.0081 -0.9938 0.1106
vn 0.1447 -0.9614 0.2341
vn -0.1475 -0.9510 0.2717
vn 0.5907 -0.7993 0.1106
vn 0.6783 -0.6827 0.2717
vn 0.4480 -0.8628 0.2341
vn 0.9427 -0.3148 0.1106
vn 0.9590 -0.1595 0.2341
vn 0.8589 -0.4341 0.2717
vn 0.9942 -0.0000 0.1073
vn 0.8023 0.5829 0.1283
vn 0.3072 0.9456 0.1073
vn -0.3065 0.9432 0.1283
vn -0.8043 0.5844 0.1073
vn -0.9917 -0.0000 0.1283
vn -0.8043 -0.5844 0.1073
vn -0.3065 -0.9432 0.1283
vn 0.3072 -0.9456 0.1073
vn 0.8023 -0.5829 0.1283
# 91 vertex normals

vt 0.5000 0.5000 0.9995
vt 0.6365 0.5000 0.9615
vt 0.5422 0.6298 0.9615
vt 0.7626 0.5000 0.8503
vt 0.6807 0.6313 0.8940
vt 0.5811 0.7498 0.8503
vt 0.3896 0.5802 0.9615
vt 0.4310 0.7125 0.8940
vt 0.2875 0.6544 0.8503
vt 0.3896 0.4198 0.9615
vt 0.2766 0.5000 0.8940
vt 0.2875 0.3456 0.8503
vt 0.5422 0.3702 0.9615
vt 0.4310 0.2875 0.8940
vt 0.5811 0.2502 0.8503
vt 0.6807 0.3687 0.8940
vt 0.8438 0.7498 0.5257
vt 0.7234 0.7626 0.7234
vt 0.8188 0.6313 0.7234
vt 0.3687 0.9041 0.5257
vt 0.3193 0.7936 0.7234
vt 0.4736 0.8438 0.7234
vt 0.0751 0.5000 0.5257
vt 0.1649 0.4189 0.7234
vt 0.1649 0.5811 0.7234
vt 0.3687 0.0959 0.5257
vt 0.4736 0.1562 0.7234
vt 0.3193 0.2064 0.7234
vt 0.8438 0.2502 0.5257
vt 0.8188 0.3687 0.7234
vt 0.7234 0.2374 0.7234
vt 0.8687 0.5000 0.6744
vt 0.9109 0.3702 0.5057
vt 0.9468 0.5000 0.4473
vt 0.9109 0.6298 0.5057
vt 0.6139 0.8507 0.6744
vt 0.7504 0.8507 0.5057
vt 0.6381 0.9249 0.4473
vt 0.5035 0.9309 0.5057
vt 0.2017 0.7167 0.6744
vt 0.2439 0.8465 0.5057
vt 0.1386 0.7626 0.4473
vt 0.0913 0.6365 0.5057
vt 0.2017 0.2833 0.6744
vt 0.0913 0.3635 0.5057
vt 0.1386 0.2374 0.4473
vt 0.2439 0.1535 0.5057
vt 0.6139 0.1493 0.6744
vt 0.5035 0.0691 0.5057
vt 0.6381 0.0751 0.4473
vt 0.7504 0.1493 0.5057
vt 0.9751 0.6544 0.0005
vt 0.9305 0.7125 0.2766
vt 0.9791 0.5802 0.2327
vt 0.7936 0.9041 0.0005
vt 0.7244 0.9309 0.2327
vt 0.8351 0.8438 0.2766
vt 0.5000 0.9995 0.0005
vt 0.4310 0.9751 0.2766
vt 0.5718 0.9805 0.2327
vt 0.2064 0.9041 0.0005
vt 0.1595 0.8465 0.2327
vt 0.2766 0.9249 0.2766
vt 0.0249 0.6544 0.0005
vt 0.0269 0.5811 0.2766
vt 0.0652 0.7167 0.2327
vt 0.0249 0.3456 0.0005
vt 0.0652 0.2833 0.2327
vt 0.0269 0.4189 0.2766
vt 0.2064 0.0959 0.0005
vt 0.2766 0.0751 0.2766
vt 0.1595 0.1535 0.2327
vt 0.5000 0.0005 0.0005
vt 0.5718 0.0195 0.2327
vt 0.4310 0.0249 0.2766
vt 0.7936 0.0959 0.0005
vt 0.8351 0.1562 0.2766
vt 0.7244 0.0691 0.2327
vt 0.9751 0.3456 0.0005
vt 0.9791 0.4198 0.2327
vt 0.9305 0.2875 0.2766
vt 0.9995 0.5000 0.0005
vt 0.9041 0.7936 0.0005
vt 0.6544 0.9751 0.0005
vt 0.3456 0.9751 0.0005
vt 0.0959 0.7936 0.0005
vt 0.0005 0.5000 0.0005
vt 0.0959 0.2064 0.0005
vt 0.3456 0.0249 0.0005
vt 0.6544 0.0249 0.0005
vt 0.9041 0.2064 0.0005
# 91 texture coords

g GeoSphere001
usemtl Material__25
s 1
f 1/1/1 2/2/2 3/3/3 
f 2/2/2 4/4/4 5/5/5 
f 2/2/2 5/5/5 3/3/3 
f 3/3/3 5/5/5 6/6/6 
f 1/1/1 3/3/3 7/7/7 
f 3/3/3 6/6/6 8/8/8 
f 3/3/3 8/8/8 7/7/7 
f 7/7/7 8/8/8 9/9/9 
f 1/1/1 7/7/7 10/10/10 
f 7/7/7 9/9/9 11/11/11 
f 7/7/7 11/11/11 10/10/10 
f 10/10/10 11/11/11 12/12/12 
f 1/1/1 10/10/10 13/13/13 
f 10/10/10 12/12/12 14/14/14 
f 10/10/10 14/14/14 13/13/13 
f 13/13/13 14/14/14 15/15/15 
f 1/1/1 13/13/13 2/2/2 
f 13/13/13 15/15/15 16/16/16 
f 13/13/13 16/16/16 2/2/2 
f 2/2/2 16/16/16 4/4/4 
f 17/17/17 18/18/18 19/19/19 
f 18/18/18 6/6/6 5/5/5 
f 18/18/18 5/5/5 19/19/19 
f 19/19/19 5/5/5 4/4/4 
f 20/20/20 21/21/21 22/22/22 
f 21/21/21 9/9/9 8/8/8 
f 21/21/21 8/8/8 22/22/22 
f 22/22/22 8/8/8 6/6/6 
f 23/23/23 24/24/24 25/25/25 
f 24/24/24 12/12/12 11/11/11 
f 24/24/24 11/11/11 25/25/25 
f 25/25/25 11/11/11 9/9/9 
f 26/26/26 27/27/27 28/28/28 
f 27/27/27 15/15/15 14/14/14 
f 27/27/27 14/14/14 28/28/28 
f 28/28/28 14/14/14 12/12/12 
f 29/29/29 30/30/30 31/31/31 
f 30/30/30 4/4/4 16/16/16 
f 30/30/30 16/16/16 31/31/31 
f 31/31/31 16/16/16 15/15/15 
f 4/4/4 30/30/30 32/32/32 
f 30/30/30 29/29/29 33/33/33 
f 30/30/30 33/33/33 32/32/32 
f 32/32/32 33/33/33 34/34/34 
f 4/4/4 32/32/32 19/19/19 
f 32/32/32 34/34/34 35/35/35 
f 32/32/32 35/35/35 19/19/19 
f 19/19/19 35/35/35 17/17/17 
f 6/6/6 18/18/18 36/36/36 
f 18/18/18 17/17/17 37/37/37 
f 18/18/18 37/37/37 36/36/36 
f 36/36/36 37/37/37 38/38/38 
f 6/6/6 36/36/36 22/22/22 
f 36/36/36 38/38/38 39/39/39 
f 36/36/36 39/39/39 22/22/22 
f 22/22/22 39/39/39 20/20/20 
f 9/9/9 21/21/21 40/40/40 
f 21/21/21 20/20/20 41/41/41 
f 21/21/21 41/41/41 40/40/40 
f 40/40/40 41/41/41 42/42/42 
f 9/9/9 40/40/40 25/25/25 
f 40/40/40 42/42/42 43/43/43 
f 40/40/40 43/43/43 25/25/25 
f 25/25/25 43/43/43 23/23/23 
f 12/12/12 24/24/24 44/44/44 
f 24/24/24 23/23/23 45/45/45 
f 24/24/24 45/45/45 44/44/44 
f 44/44/44 45/45/45 46/46/46 
f 12/12/12 44/44/44 28/28/28 
f 44/44/44 46/46/46 47/47/47 
f 44/44/44 47/47/47 28/28/28 
f 28/28/28 47/47/47 26/26/26 
f 15/15/15 27/27/27 48/48/48 
f 27/27/27 26/26/26 49/49/49 
f 27/27/27 49/49/49 48/48/48 
f 48/48/48 49/49/49 50/50/50 
f 15/15/15 48/48/48 31/31/31 
f 48/48/48 50/50/50 51/51/51 
f 48/48/48 51/51/51 31/31/31 
f 31/31/31 51/51/51 29/29/29 
f 52/52/52 53/53/53 54/54/54 
f 53/53/53 17/17/17 35/35/35 
f 53/53/53 35/35/35 54/54/54 
f 54/54/54 35/35/35 34/34/34 
f 55/55/55 56/56/56 57/57/57 
f 56/56/56 38/38/38 37/37/37 
f 56/56/56 37/37/37 57/57/57 
f 57/57/57 37/37/37 17/17/17 
f 58/58/58 59/59/59 60/60/60 
f 59/59/59 20/20/20 39/39/39 
f 59/59/59 39/39/39 60/60/60 
f 60/60/60 39/39/39 38/38/38 
f 61/61/61 62/62/62 63/63/63 
f 62/62/62 42/42/42 41/41/41 
f 62/62/62 41/41/41 63/63/63 
f 63/63/63 41/41/41 20/20/20 
f 64/64/64 65/65/65 66/66/66 
f 65/65/65 23/23/23 43/43/43 
f 65/65/65 43/43/43 66/66/66 
f 66/66/66 43/43/43 42/42/42 
f 67/67/67 68/68/68 69/69/69 
f 68/68/68 46/46/46 45/45/45 
f 68/68/68 45/45/45 69/69/69 
f 69/69/69 45/45/45 23/23/23 
f 70/70/70 71/71/71 72/72/72 
f 71/71/71 26/26/26 47/47/47 
f 71/71/71 47/47/47 72/72/72 
f 72/72/72 47/47/47 46/46/46 
f 73/73/73 74/74/74 75/75/75 
f 74/74/74 50/50/50 49/49/49 
f 74/74/74 49/49/49 75/75/75 
f 75/75/75 49/49/49 26/26/26 
f 76/76/76 77/77/77 78/78/78 
f 77/77/77 29/29/29 51/51/51 
f 77/77/77 51/51/51 78/78/78 
f 78/78/78 51/51/51 50/50/50 
f 79/79/79 80/80/80 81/81/81 
f 80/80/80 34/34/34 33/33/33 
f 80/80/80 33/33/33 81/81/81 
f 81/81/81 33/33/33 29/29/29 
f 34/34/34 80/80/80 54/54/54 
f 80/80/80 79/79/79 82/82/82 
f 80/80/80 82/82/82 54/54/54 
f 54/54/54 82/82/82 52/52/52 
f 17/17/17 53/53/53 57/57/57 
f 53/53/53 52/52/52 83/83/83 
f 53/53/53 83/83/83 57/57/57 
f 57/57/57 83/83/83 55/55/55 
f 38/38/38 56/56/56 60/60/60 
f 56/56/56 55/55/55 84/84/84 
f 56/56/56 84/84/84 60/60/60 
f 60/60/60 84/84/84 58/58/58 
f 20/20/20 59/59/59 63/63/63 
f 59/59/59 58/58/58 85/85/85 
f 59/59/59 85/85/85 63/63/63 
f 63/63/63 85/85/85 61/61/61 
f 42/42/42 62/62/62 66/66/66 
f 62/62/62 61/61/61 86/86/86 
f 62/62/62 86/86/86 66/66/66 
f 66/66/66 86/86/86 64/64/64 
f 23/23/23 65/65/65 69/69/69 
f 65/65/65 64/64/64 87/87/87 
f 65/65/65 87/87/87 69/69/69 
f 69/69/69 87/87/87 67/67/67 
f 46/46/46 68/68/68 72/72/72 
f 68/68/68 67/67/67 88/88/88 
f 68/68/68 88/88/88 72/72/72 
f 72/72/72 88/88/88 70/70/70 
f 26/26/26 71/71/71 75/75/75 
f 71/71/71 70/70/70 89/89/89 
f 71/71/71 89/89/89 75/75/75 
f 75/75/75 89/89/89 73/73/73 
f 50/50/50 74/74/74 78/78/78 
f 74/74/74 73/73/73 90/90/90 
f 74/74/74 90/90/90 78/78/78 
f 78/78/78 90/90/90 76/76/76 
f 29/29/29 77/77/77 81/81/81 
f 77/77/77 76/76/76 91/91/91 
f 77/77/77 91/91/91 81/81/81 
f 81/81/81 91/91/91 79/79/79 
# 160 faces

