# 3ds Max Wavefront OBJ Exporter v0.97b - (c)2007 guruware
# File Created: 03.05.2014 12:39:05

#
# object lock
#

v  -0.5000 -0.5000 0.0000
v  -0.5000 0.5000 0.0000
v  0.5000 0.5000 0.0000
v  0.5000 -0.5000 0.0000
v  -0.2500 -0.2500 0.7500
v  0.2500 -0.2500 0.7500
v  0.2500 0.2500 0.7500
v  -0.2500 0.2500 0.7500
v  0.5000 -0.5000 0.2500
v  -0.5000 -0.5000 0.2500
v  0.5000 0.5000 0.2500
v  -0.5000 0.5000 0.2500
v  0.2500 -0.2500 0.5000
v  -0.2500 -0.2500 0.5000
v  0.2500 0.2500 0.5000
v  -0.2500 0.2500 0.5000
# 16 vertices

vn 0.0000 0.0000 -1.0000
vn 0.0000 0.0000 1.0000
vn 0.0000 -1.0000 0.0000
vn 1.0000 0.0000 0.0000
vn 0.0000 1.0000 0.0000
vn -1.0000 0.0000 0.0000
vn 0.0000 -0.7071 0.7071
vn 0.7071 0.0000 0.7071
vn 0.0000 0.7071 0.7071
vn -0.7071 0.0000 0.7071
# 10 vertex normals

vt 0.0000 0.5000 0.0000
vt 0.0000 0.0000 0.0000
vt 0.5000 0.0000 0.0000
vt 0.5000 0.5000 0.0000
vt 0.0000 0.7500 0.0000
vt 0.2500 0.7500 0.0000
vt 0.2500 1.0000 0.0000
vt 0.0000 1.0000 0.0000
vt 1.0000 0.5000 0.0000
vt 1.0000 0.6250 0.0000
vt 0.5000 0.6250 0.0000
vt 0.8750 0.8750 0.0000
vt 0.6250 0.8750 0.0000
vt 0.8750 1.0000 0.0000
vt 0.6250 1.0000 0.0000
# 15 texture coords

g lock
s 2
f 1/1/1 2/2/1 3/3/1 
f 3/3/1 4/4/1 1/1/1 
s 4
f 5/5/2 6/6/2 7/7/2 
f 7/7/2 8/8/2 5/5/2 
s 8
f 1/4/3 4/9/3 9/10/3 
f 9/10/3 10/11/3 1/4/3 
s 16
f 4/4/4 3/9/4 11/10/4 
f 11/10/4 9/11/4 4/4/4 
s 32
f 3/4/5 2/9/5 12/10/5 
f 12/10/5 11/11/5 3/4/5 
s 64
f 2/4/6 1/9/6 10/10/6 
f 10/10/6 12/11/6 2/4/6 
s off
f 10/11/7 9/10/7 13/12/7 
f 13/12/7 14/13/7 10/11/7 
f 9/11/8 11/10/8 15/12/8 
f 15/12/8 13/13/8 9/11/8 
f 11/11/9 12/10/9 16/12/9 
f 16/12/9 15/13/9 11/11/9 
f 12/11/10 10/10/10 14/12/10 
f 14/12/10 16/13/10 12/11/10 
f 14/13/3 13/12/3 6/14/3 
f 6/14/3 5/15/3 14/13/3 
f 13/13/4 15/12/4 7/14/4 
f 7/14/4 6/15/4 13/13/4 
f 15/13/5 16/12/5 8/14/5 
f 8/14/5 7/15/5 15/13/5 
f 16/13/6 14/12/6 5/14/6 
f 5/14/6 8/15/6 16/13/6 
# 28 faces

#
# object piston
#

v  -0.1000 -0.1500 0.1250
v  -0.1000 0.1500 0.1250
v  0.1000 0.1500 0.1250
v  0.1000 -0.1500 0.1250
v  -0.1000 -0.1500 0.6250
v  0.1000 -0.1500 0.6250
v  0.1000 0.1500 0.6250
v  -0.1000 0.1500 0.6250
# 8 vertices

vn -0.0000 0.0000 -1.0000
vn 0.0000 0.0000 1.0000
vn 0.0000 -1.0000 0.0000
vn 1.0000 0.0000 -0.0000
vn 0.0000 1.0000 0.0000
vn -1.0000 0.0000 0.0000
# 6 vertex normals

vt 0.9375 0.4688 0.0000
vt 0.7500 0.4688 0.0000
vt 0.7500 0.3457 0.0000
vt 0.9375 0.3457 0.0000
vt 0.5950 0.0625 0.0000
vt 0.7175 0.0625 0.0000
vt 0.7170 0.3130 0.0000
vt 0.5950 0.3130 0.0000
vt 0.7500 0.0625 0.0000
vt 0.9375 0.0625 0.0000
vt 0.9375 0.3125 0.0000
vt 0.7500 0.3125 0.0000
# 12 texture coords

g piston
s 2
f 17/16/11 18/17/11 19/18/11 
f 19/18/11 20/19/11 17/16/11 
s 4
f 21/17/12 22/18/12 23/19/12 
f 23/19/12 24/16/12 21/17/12 
s 8
f 17/20/13 20/21/13 22/22/13 
f 22/22/13 21/23/13 17/20/13 
s 16
f 20/24/14 19/25/14 23/26/14 
f 23/26/14 22/27/14 20/24/14 
s 32
f 19/20/15 18/21/15 24/22/15 
f 24/22/15 23/23/15 19/20/15 
s 64
f 18/24/16 17/25/16 21/26/16 
f 21/26/16 24/27/16 18/24/16 
# 12 faces

