# 3ds Max Wavefront OBJ Exporter v0.97b - (c)2007 guruware
# File Created: 03.10.2014 23:28:13

#
# object Cylinder001
#

v  0.1155 0.0478 0.0000
v  0.0478 0.1155 0.0000
v  0.0478 0.1155 0.0625
v  0.1155 0.0478 0.0625
v  -0.0478 0.1155 0.0000
v  -0.0478 0.1155 0.0625
v  -0.1155 0.0478 0.0000
v  -0.1155 0.0478 0.0625
v  -0.1155 -0.0478 0.0000
v  -0.1155 -0.0478 0.0625
v  -0.0478 -0.1155 0.0000
v  -0.0478 -0.1155 0.0625
v  0.0478 -0.1155 0.0000
v  0.0478 -0.1155 0.0625
v  0.1155 -0.0478 0.0000
v  0.1155 -0.0478 0.0625
v  0.5044 0.4367 0.0625
v  0.4367 0.5044 0.0625
v  0.4367 0.5044 0.1875
v  0.5044 0.4367 0.1875
v  -0.0478 0.1155 0.1875
v  0.0478 0.1155 0.1875
v  -0.4367 0.5044 0.0625
v  -0.5044 0.4367 0.0625
v  -0.5044 0.4367 0.1875
v  -0.4367 0.5044 0.1875
v  -0.1155 -0.0478 0.1875
v  -0.1155 0.0478 0.1875
v  -0.5044 -0.4367 0.0625
v  -0.4367 -0.5044 0.0625
v  -0.4367 -0.5044 0.1875
v  -0.5044 -0.4367 0.1875
v  0.0478 -0.1155 0.1875
v  -0.0478 -0.1155 0.1875
v  0.4367 -0.5044 0.0625
v  0.5044 -0.4367 0.0625
v  0.5044 -0.4367 0.1875
v  0.4367 -0.5044 0.1875
v  0.1155 0.0478 0.1875
v  0.1155 -0.0478 0.1875
v  0.0478 0.1155 0.2500
v  0.1155 0.0478 0.2500
v  -0.0478 0.1155 0.2500
v  -0.1155 0.0478 0.2500
v  -0.1155 -0.0478 0.2500
v  -0.0478 -0.1155 0.2500
v  0.0478 -0.1155 0.2500
v  0.1155 -0.0478 0.2500
v  0.3480 0.4157 0.0625
v  0.4157 0.3480 0.0625
v  0.3480 0.4157 0.1875
v  0.4157 0.3480 0.1875
v  -0.4157 0.3480 0.0625
v  -0.3480 0.4157 0.0625
v  -0.4157 0.3480 0.1875
v  -0.3480 0.4157 0.1875
v  -0.3480 -0.4157 0.0625
v  -0.4157 -0.3480 0.0625
v  -0.3480 -0.4157 0.1875
v  -0.4157 -0.3480 0.1875
v  0.4157 -0.3480 0.0625
v  0.3480 -0.4157 0.0625
v  0.4157 -0.3480 0.1875
v  0.3480 -0.4157 0.1875
v  0.3480 0.4157 0.9375
v  0.4157 0.3480 0.9375
v  0.5044 0.4367 0.9375
v  0.4367 0.5044 0.9375
v  -0.4157 0.3480 0.9375
v  -0.3480 0.4157 0.9375
v  -0.4367 0.5044 0.9375
v  -0.5044 0.4367 0.9375
v  -0.3480 -0.4157 0.9375
v  -0.4157 -0.3480 0.9375
v  -0.5044 -0.4367 0.9375
v  -0.4367 -0.5044 0.9375
v  0.4157 -0.3480 0.9375
v  0.3480 -0.4157 0.9375
v  0.4367 -0.5044 0.9375
v  0.5044 -0.4367 0.9375
v  0.4157 0.3480 0.8125
v  0.3480 0.4157 0.8125
v  0.5044 0.4367 0.8125
v  0.4367 0.5044 0.8125
v  -0.3480 0.4157 0.8125
v  -0.4157 0.3480 0.8125
v  -0.4367 0.5044 0.8125
v  -0.5044 0.4367 0.8125
v  -0.4157 -0.3480 0.8125
v  -0.3480 -0.4157 0.8125
v  -0.5044 -0.4367 0.8125
v  -0.4367 -0.5044 0.8125
v  0.3480 -0.4157 0.8125
v  0.4157 -0.3480 0.8125
v  0.4367 -0.5044 0.8125
v  0.5044 -0.4367 0.8125
v  0.2596 0.3273 0.8125
v  0.3273 0.2596 0.8125
v  0.3273 0.2596 0.9375
v  0.2596 0.3273 0.9375
v  -0.3273 0.2596 0.8125
v  -0.2596 0.3273 0.8125
v  -0.2596 0.3273 0.9375
v  -0.3273 0.2596 0.9375
v  -0.2596 -0.3273 0.8125
v  -0.3273 -0.2596 0.8125
v  -0.3273 -0.2596 0.9375
v  -0.2596 -0.3273 0.9375
v  0.3273 -0.2596 0.8125
v  0.2596 -0.3273 0.8125
v  0.2596 -0.3273 0.9375
v  0.3273 -0.2596 0.9375
v  -0.2500 -0.2500 0.7500
v  0.2500 -0.2500 0.7500
v  0.2500 0.2500 0.7500
v  -0.2500 0.2500 0.7500
v  -0.2500 -0.2500 0.2500
v  0.2500 -0.2500 0.2500
v  0.2500 0.2500 0.2500
v  -0.2500 0.2500 0.2500
# 120 vertices

vn 1.0000 0.0000 -0.0000
vn 0.7071 0.7071 0.0000
vn 0.6037 0.7972 -0.0000
vn 0.9906 -0.1368 -0.0000
vn 0.0000 1.0000 -0.0000
vn 0.1368 0.9906 -0.0000
vn -0.7071 0.7071 -0.0000
vn -0.7972 0.6037 -0.0000
vn -1.0000 -0.0000 -0.0000
vn -0.9906 0.1368 -0.0000
vn -0.7071 -0.7071 -0.0000
vn -0.6037 -0.7972 -0.0000
vn 0.0000 -1.0000 -0.0000
vn -0.1368 -0.9906 -0.0000
vn 0.7071 -0.7071 -0.0000
vn 0.7972 -0.6037 -0.0000
vn 0.9239 0.3827 0.0000
vn 0.1368 0.9906 0.0000
vn -0.3827 0.9239 0.0000
vn -0.7972 0.6037 0.0000
vn -0.9239 -0.3827 0.0000
vn -0.1368 -0.9906 0.0000
vn -0.6037 -0.7972 0.0000
vn 0.3827 -0.9239 0.0000
vn 0.9906 -0.1368 0.0000
vn 0.7972 -0.6037 0.0000
vn 0.7071 0.7071 -0.0000
vn 1.0000 0.0000 0.0000
vn 0.0000 1.0000 0.0000
vn -0.7071 0.7071 0.0000
vn -1.0000 -0.0000 0.0000
vn -0.7071 -0.7071 0.0000
vn -0.0000 -1.0000 0.0000
vn 0.7071 -0.7071 0.0000
vn 0.0000 0.0000 -1.0000
vn -0.0000 -0.0000 1.0000
vn -0.0000 0.0000 -1.0000
vn 0.0000 -0.0000 1.0000
vn 0.9239 0.3827 -0.0000
vn -0.0000 -0.0000 -1.0000
vn 0.0000 0.0000 1.0000
vn 0.0000 -0.0000 -1.0000
vn -0.0000 0.0000 1.0000
vn -0.9239 -0.3827 -0.0000
vn 0.3827 -0.9239 -0.0000
vn -0.3827 0.9239 -0.0000
vn -0.3827 -0.9239 0.0000
vn 0.9239 -0.3827 0.0000
vn 0.3827 0.9239 0.0000
vn -0.9239 0.3827 0.0000
# 50 vertex normals

vt 0.2969 0.6563 0.0000
vt 0.3281 0.6563 0.0000
vt 0.3281 0.6875 0.0000
vt 0.2969 0.6875 0.0000
vt 0.0781 0.6563 0.0000
vt 0.1094 0.6563 0.0000
vt 0.1094 0.6875 0.0000
vt 0.0781 0.6875 0.0000
vt 0.1406 0.6563 0.0000
vt 0.1406 0.6875 0.0000
vt 0.1719 0.6563 0.0000
vt 0.1719 0.6875 0.0000
vt 0.2031 0.6563 0.0000
vt 0.2031 0.6875 0.0000
vt 0.2344 0.6563 0.0000
vt 0.2344 0.6875 0.0000
vt 0.2656 0.6563 0.0000
vt 0.2656 0.6875 0.0000
vt 0.5313 0.6094 0.0000
vt 0.5313 0.5469 0.0000
vt 0.6094 0.5469 0.0000
vt 0.6094 0.6094 0.0000
vt 0.1094 0.7188 0.0000
vt 0.0781 0.7188 0.0000
vt 0.1719 0.7188 0.0000
vt 0.1406 0.7188 0.0000
vt 0.2344 0.7188 0.0000
vt 0.2031 0.7188 0.0000
vt 0.2969 0.7188 0.0000
vt 0.2656 0.7188 0.0000
vt 0.3281 0.7188 0.0000
vt 0.3281 0.7500 0.0000
vt 0.2969 0.7500 0.0000
vt 0.1094 0.7500 0.0000
vt 0.0781 0.7500 0.0000
vt 0.1406 0.7500 0.0000
vt 0.1719 0.7500 0.0000
vt 0.2031 0.7500 0.0000
vt 0.2344 0.7500 0.0000
vt 0.2656 0.7500 0.0000
vt 0.1719 0.2188 0.0000
vt 0.1719 0.1250 0.0000
vt 0.2344 0.0625 0.0000
vt 0.3281 0.0625 0.0000
vt 0.3906 0.1250 0.0000
vt 0.3906 0.2188 0.0000
vt 0.3281 0.2813 0.0000
vt 0.2344 0.2813 0.0000
vt 0.4531 0.3438 0.0000
vt 0.4531 0.4063 0.0000
vt 0.2188 0.4063 0.0000
vt 0.2188 0.3438 0.0000
vt 0.5313 0.9063 0.0000
vt 0.6094 0.9063 0.0000
vt 0.6094 0.7031 0.0000
vt 0.5313 0.7031 0.0000
vt 0.1406 0.4063 0.0000
vt 0.1406 0.3438 0.0000
vt 0.6094 0.6250 0.0000
vt 0.5313 0.6250 0.0000
vt 0.3906 0.5000 0.0000
vt 0.3906 0.4375 0.0000
vt 0.4531 0.4375 0.0000
vt 0.4531 0.5000 0.0000
vt 0.8906 0.5469 0.0000
vt 0.8906 0.6094 0.0000
vt 0.8906 0.6250 0.0000
vt 0.8906 0.7031 0.0000
vt 0.3281 0.5000 0.0000
vt 0.3281 0.4375 0.0000
vt 0.9688 0.6250 0.0000
vt 0.9688 0.7031 0.0000
vt 0.9688 0.5469 0.0000
vt 0.9688 0.6094 0.0000
vt 0.9688 0.7813 0.0000
vt 0.8906 0.7813 0.0000
vt 1.0000 0.5000 0.0000
vt 0.5000 0.5000 0.0000
vt 0.5000 0.0000 0.0000
vt 1.0000 0.0000 0.0000
vt 0.8594 0.2031 0.0000
vt 0.7969 0.1406 0.0000
vt 0.8594 0.2969 0.0000
vt 0.7969 0.3594 0.0000
vt 0.7031 0.3594 0.0000
vt 0.6406 0.2969 0.0000
vt 0.6406 0.2031 0.0000
vt 0.7031 0.1406 0.0000
# 88 texture coords

g Cylinder001
s 8
f 1/1/1 2/2/2 3/3/3 
f 3/3/3 4/4/4 1/1/1 
f 2/5/2 5/6/5 6/7/6 
f 6/7/6 3/8/3 2/5/2 
f 5/6/5 7/9/7 8/10/8 
f 8/10/8 6/7/6 5/6/5 
f 7/9/7 9/11/9 10/12/10 
f 10/12/10 8/10/8 7/9/7 
f 9/11/9 11/13/11 12/14/12 
f 12/14/12 10/12/10 9/11/9 
f 11/13/11 13/15/13 14/16/14 
f 14/16/14 12/14/12 11/13/11 
f 13/15/13 15/17/15 16/18/16 
f 16/18/16 14/16/14 13/15/13 
f 15/17/15 1/1/1 4/4/4 
f 4/4/4 16/18/16 15/17/15 
f 17/19/17 18/20/17 19/21/17 
f 19/21/17 20/22/17 17/19/17 
f 3/8/3 6/7/6 21/23/18 
f 21/23/18 22/24/3 3/8/3 
f 23/19/19 24/20/19 25/21/19 
f 25/21/19 26/22/19 23/19/19 
f 8/10/8 10/12/10 27/25/10 
f 27/25/10 28/26/20 8/10/8 
f 29/19/21 30/20/21 31/21/21 
f 31/21/21 32/22/21 29/19/21 
f 12/14/12 14/16/14 33/27/22 
f 33/27/22 34/28/23 12/14/12 
f 35/19/24 36/20/24 37/21/24 
f 37/21/24 38/22/24 35/19/24 
f 16/18/16 4/4/4 39/29/25 
f 39/29/25 40/30/26 16/18/16 
f 39/29/25 22/31/3 41/32/27 
f 41/32/27 42/33/28 39/29/25 
f 22/24/3 21/23/18 43/34/29 
f 43/34/29 41/35/27 22/24/3 
f 21/23/18 28/26/20 44/36/30 
f 44/36/30 43/34/29 21/23/18 
f 28/26/20 27/25/10 45/37/31 
f 45/37/31 44/36/30 28/26/20 
f 27/25/10 34/28/23 46/38/32 
f 46/38/32 45/37/31 27/25/10 
f 34/28/23 33/27/22 47/39/33 
f 47/39/33 46/38/32 34/28/23 
f 33/27/22 40/30/26 48/40/34 
f 48/40/34 47/39/33 33/27/22 
f 40/30/26 39/29/25 42/33/28 
f 42/33/28 48/40/34 40/30/26 
s 1
f 13/41/35 11/42/35 9/43/35 
f 9/43/35 7/44/35 5/45/35 
f 5/45/35 2/46/35 1/47/35 
f 9/43/35 5/45/35 1/47/35 
f 13/41/35 9/43/35 1/47/35 
f 15/48/35 13/41/35 1/47/35 
s off
f 4/49/35 3/50/35 49/51/35 
f 49/51/35 50/52/35 4/49/35 
f 3/53/19 22/54/19 51/55/19 
f 51/55/19 49/56/19 3/53/19 
f 22/57/36 39/58/36 52/49/36 
f 52/49/36 51/50/36 22/57/36 
f 39/54/24 4/53/24 50/56/24 
f 50/56/24 52/55/24 39/54/24 
f 6/50/37 8/49/37 53/52/37 
f 53/52/37 54/51/37 6/50/37 
f 8/53/21 28/54/21 55/55/21 
f 55/55/21 53/56/21 8/53/21 
f 28/57/38 21/58/38 56/49/38 
f 56/49/38 55/50/38 28/57/38 
f 21/54/39 6/53/39 54/56/39 
f 54/56/17 56/55/17 21/54/17 
f 10/50/40 12/49/40 57/52/40 
f 57/52/40 58/51/40 10/50/40 
f 12/53/24 34/54/24 59/55/24 
f 59/55/24 57/56/24 12/53/24 
f 34/49/41 27/50/41 60/57/41 
f 60/57/41 59/58/41 34/49/41 
f 27/54/19 10/53/19 58/56/19 
f 58/56/19 60/55/19 27/54/19 
f 14/49/42 16/50/42 61/51/42 
f 61/51/42 62/52/42 14/49/42 
f 16/53/17 40/54/17 63/55/17 
f 63/55/17 61/56/17 16/53/17 
f 40/49/43 33/50/43 64/57/43 
f 64/57/43 63/58/43 40/49/43 
f 33/54/21 14/53/21 62/56/21 
f 62/56/21 64/55/21 33/54/21 
f 50/52/40 49/51/40 18/57/40 
f 18/57/37 17/58/37 50/52/37 
f 49/56/19 51/55/19 19/59/19 
f 19/59/19 18/60/19 49/56/19 
f 65/61/41 66/62/41 67/63/41 
f 67/63/41 68/64/41 65/61/41 
f 52/55/24 50/56/24 17/60/24 
f 17/60/24 20/59/24 52/55/24 
f 54/51/42 53/52/42 24/58/42 
f 24/58/42 23/57/42 54/51/42 
f 53/56/21 55/55/21 25/59/21 
f 25/59/21 24/60/21 53/56/21 
f 69/61/41 70/62/41 71/63/41 
f 71/63/41 72/64/41 69/61/41 
f 56/55/17 54/56/17 23/60/17 
f 23/60/17 26/59/17 56/55/17 
f 58/51/35 57/52/35 30/58/35 
f 30/58/35 29/57/35 58/51/35 
f 57/56/24 59/55/24 31/59/24 
f 31/59/24 30/60/24 57/56/24 
f 73/61/41 74/62/41 75/63/41 
f 75/63/41 76/64/41 73/61/41 
f 60/55/19 58/56/19 29/60/19 
f 29/60/19 32/59/19 60/55/19 
f 62/52/37 61/51/37 36/57/37 
f 36/57/35 35/58/35 62/52/35 
f 61/56/17 63/55/17 37/59/17 
f 37/59/17 36/60/17 61/56/17 
f 77/61/41 78/62/41 79/63/41 
f 79/63/41 80/64/41 77/61/41 
f 64/55/21 62/56/21 35/60/21 
f 35/60/21 38/59/21 64/55/21 
f 51/22/44 52/21/44 81/65/44 
f 81/65/21 82/66/21 51/22/21 
f 52/55/45 20/59/45 83/67/45 
f 83/67/45 81/68/45 52/55/45 
f 20/22/39 19/21/39 84/65/39 
f 84/65/17 83/66/17 20/22/17 
f 19/59/19 51/55/19 82/68/19 
f 82/68/46 84/67/46 19/59/46 
f 55/22/24 56/21/24 85/65/24 
f 85/65/45 86/66/45 55/22/45 
f 56/55/39 26/59/39 87/67/39 
f 87/67/17 85/68/17 56/55/17 
f 26/22/19 25/21/19 88/65/19 
f 88/65/46 87/66/46 26/22/46 
f 25/59/44 55/55/44 86/68/44 
f 86/68/21 88/67/21 25/59/21 
f 59/22/39 60/21/39 89/65/39 
f 89/65/17 90/66/17 59/22/17 
f 60/55/19 32/59/19 91/67/19 
f 91/67/46 89/68/46 60/55/46 
f 32/22/44 31/21/44 92/65/44 
f 92/65/21 91/66/21 32/22/21 
f 31/59/24 59/55/24 90/68/24 
f 90/68/24 92/67/24 31/59/24 
f 63/55/19 64/59/19 93/67/19 
f 93/67/19 94/68/19 63/55/19 
f 64/55/21 38/59/21 95/67/21 
f 95/67/44 93/68/44 64/55/44 
f 38/22/45 37/21/45 96/65/45 
f 96/65/45 95/66/45 38/22/45 
f 37/59/17 63/55/17 94/68/17 
f 94/68/39 96/67/39 37/59/39 
f 97/69/44 98/70/44 99/63/44 
f 99/63/21 100/64/21 97/69/21 
f 81/68/24 83/67/24 67/71/24 
f 67/71/45 66/72/45 81/68/45 
f 83/66/39 84/65/39 68/73/39 
f 68/73/17 67/74/17 83/66/17 
f 84/67/19 82/68/19 65/72/19 
f 65/72/19 68/71/19 84/67/19 
f 101/69/24 102/70/24 103/63/24 
f 103/63/24 104/64/24 101/69/24 
f 85/68/39 87/67/39 71/71/39 
f 71/71/39 70/72/39 85/68/39 
f 87/66/46 88/65/46 72/73/46 
f 72/73/46 71/74/46 87/66/46 
f 88/67/21 86/68/21 69/72/21 
f 69/72/44 72/71/44 88/67/44 
f 105/69/39 106/70/39 107/63/39 
f 107/63/17 108/64/17 105/69/17 
f 89/68/19 91/67/19 75/71/19 
f 75/71/19 74/72/19 89/68/19 
f 91/66/44 92/65/44 76/73/44 
f 76/73/21 75/74/21 91/66/21 
f 92/67/45 90/68/45 73/72/45 
f 73/72/45 76/71/45 92/67/45 
f 109/69/19 110/70/19 111/63/19 
f 111/63/19 112/64/19 109/69/19 
f 93/68/44 95/67/44 79/71/44 
f 79/71/44 78/72/44 93/68/44 
f 95/66/45 96/65/45 80/73/45 
f 80/73/45 79/74/45 95/66/45 
f 96/67/17 94/68/17 77/72/17 
f 77/72/39 80/71/39 96/67/39 
f 82/69/35 81/70/35 98/63/35 
f 98/63/35 97/64/35 82/69/35 
f 81/68/45 66/72/45 99/75/45 
f 99/75/45 98/76/45 81/68/45 
f 66/62/41 65/61/41 100/69/41 
f 100/69/41 99/70/41 66/62/41 
f 65/72/19 82/68/19 97/76/19 
f 97/76/46 100/75/46 65/72/46 
f 86/63/35 85/64/35 102/69/35 
f 102/69/35 101/70/35 86/63/35 
f 85/68/39 70/72/39 103/75/39 
f 103/75/17 102/76/17 85/68/17 
f 70/62/41 69/61/41 104/69/41 
f 104/69/41 103/70/41 70/62/41 
f 69/72/21 86/68/21 101/76/21 
f 101/76/44 104/75/44 69/72/44 
f 90/63/35 89/64/35 106/69/35 
f 106/69/35 105/70/35 90/63/35 
f 89/68/19 74/72/19 107/75/19 
f 107/75/19 106/76/19 89/68/19 
f 74/62/41 73/61/41 108/69/41 
f 108/69/41 107/70/41 74/62/41 
f 73/72/45 90/68/45 105/76/45 
f 105/76/45 108/75/45 73/72/45 
f 94/69/35 93/70/35 110/63/35 
f 110/63/35 109/64/35 94/69/35 
f 93/68/44 78/72/44 111/75/44 
f 111/75/44 110/76/44 93/68/44 
f 78/62/41 77/61/41 112/69/41 
f 112/69/41 111/70/41 78/62/41 
f 77/72/17 94/68/17 109/76/17 
f 109/76/17 112/75/17 77/72/17 
s 4
f 113/77/41 114/78/41 115/79/41 
f 115/79/41 116/80/41 113/77/41 
s 8
f 117/78/47 118/79/47 114/80/47 
f 114/80/47 113/77/47 117/78/47 
s 16
f 118/78/48 119/79/48 115/80/48 
f 115/80/48 114/77/48 118/78/48 
s 32
f 119/78/49 120/79/49 116/80/49 
f 116/80/49 115/77/49 119/78/49 
s 64
f 120/78/50 117/79/50 113/80/50 
f 113/80/50 116/77/50 120/78/50 
s 2
f 47/81/35 48/82/35 118/80/35 
f 46/83/35 47/81/35 118/80/35 
f 46/83/35 118/80/35 117/77/35 
f 45/84/35 46/83/35 117/77/35 
f 44/85/35 45/84/35 117/77/35 
f 44/85/35 117/77/35 120/78/35 
f 43/86/35 44/85/35 120/78/35 
f 41/87/35 43/86/35 120/78/35 
f 41/87/35 120/78/35 119/79/35 
f 42/88/35 41/87/35 119/79/35 
f 42/88/35 119/79/35 118/80/35 
f 42/88/35 118/80/35 48/82/35 
# 236 faces

