# 3ds Max Wavefront OBJ Exporter v0.97b - (c)2007 guruware
# File Created: 03.03.2013 18:40:18

#
# object scanner
#

v  -0.0000 0.0000 -1.4000
v  -0.0000 0.2000 -1.4000
v  1.2124 0.2000 -0.7000
v  1.2124 0.0000 -0.7000
v  -0.0000 0.2000 -1.0000
v  0.8660 0.2000 -0.5000
v  -0.0000 0.0000 -1.0000
v  0.8660 0.0000 -0.5000
v  1.2124 0.2000 0.7000
v  1.2124 0.0000 0.7000
v  0.8660 0.2000 0.5000
v  0.8660 0.0000 0.5000
v  -0.0000 0.2000 1.4000
v  -0.0000 0.0000 1.4000
v  -0.0000 0.2000 1.0000
v  -0.0000 0.0000 1.0000
v  -1.2124 0.2000 0.7000
v  -1.2124 0.0000 0.7000
v  -0.8660 0.2000 0.5000
v  -0.8660 0.0000 0.5000
v  -1.2124 0.2000 -0.7000
v  -1.2124 0.0000 -0.7000
v  -0.8660 0.2000 -0.5000
v  -0.8660 0.0000 -0.5000
# 24 vertices

vn 0.5000 0.0000 -0.8660
vn 0.0000 1.0000 -0.0000
vn -0.5000 0.0000 0.8660
vn 0.0000 -1.0000 -0.0000
vn 1.0000 0.0000 -0.0000
vn -1.0000 0.0000 -0.0000
vn 0.5000 0.0000 0.8660
vn -0.5000 0.0000 -0.8660
# 8 vertex normals

vt 0.7694 0.0464 0.0000
vt 0.7694 0.0100 0.0000
vt 0.9900 0.0100 0.0000
vt 0.9900 0.0464 0.0000
vt 0.5195 0.2306 0.0000
vt 0.4467 0.2306 0.0000
vt 0.3557 0.0730 0.0000
vt 0.3921 0.0100 0.0000
vt 0.7064 0.0684 0.0000
vt 0.7064 0.1048 0.0000
vt 0.5488 0.1048 0.0000
vt 0.5488 0.0684 0.0000
vt 0.0828 0.7011 0.0000
vt 0.0100 0.7011 0.0000
vt 0.1374 0.4805 0.0000
vt 0.1738 0.5436 0.0000
vt 0.5488 0.1631 0.0000
vt 0.5488 0.1267 0.0000
vt 0.8035 0.1267 0.0000
vt 0.8035 0.1631 0.0000
vt 0.1738 0.0730 0.0000
vt 0.1374 0.0100 0.0000
vt 0.7308 0.1850 0.0000
vt 0.7308 0.2214 0.0000
vt 0.5489 0.2214 0.0000
vt 0.5489 0.1850 0.0000
vt 0.3921 0.4805 0.0000
vt 0.3557 0.5436 0.0000
vt 0.5488 0.0464 0.0000
vt 0.5488 0.0100 0.0000
vt 0.0828 0.2306 0.0000
vt 0.0100 0.2306 0.0000
vt 0.8640 0.0683 0.0000
vt 0.8640 0.1047 0.0000
vt 0.7064 0.1047 0.0000
vt 0.7064 0.0683 0.0000
vt 0.5195 0.7011 0.0000
vt 0.4467 0.7011 0.0000
vt 0.1738 0.3882 0.0000
vt 0.1374 0.4512 0.0000
vt 0.5489 0.1047 0.0000
vt 0.5489 0.0683 0.0000
vt 0.3921 0.9217 0.0000
vt 0.3557 0.8587 0.0000
vt 0.5489 0.1630 0.0000
vt 0.5489 0.1267 0.0000
vt 0.8036 0.1267 0.0000
vt 0.8036 0.1630 0.0000
vt 0.3557 0.3882 0.0000
vt 0.3921 0.4512 0.0000
vt 0.7307 0.1851 0.0000
vt 0.7307 0.2215 0.0000
vt 0.5488 0.2215 0.0000
vt 0.5488 0.1851 0.0000
vt 0.1374 0.9217 0.0000
vt 0.1738 0.8587 0.0000
vt 0.8639 0.0684 0.0000
vt 0.8639 0.1048 0.0000
# 58 texture coords

g scanner
s off
f 1/1/1 2/2/1 3/3/1 4/4/1 
f 2/5/2 5/6/2 6/7/2 3/8/2 
f 5/9/3 7/10/3 8/11/3 6/12/3 
f 7/13/4 1/14/4 4/15/4 8/16/4 
f 4/17/5 3/18/5 9/19/5 10/20/5 
f 3/8/2 6/7/2 11/21/2 9/22/2 
f 6/23/6 8/24/6 12/25/6 11/26/6 
f 8/16/4 4/15/4 10/27/4 12/28/4 
f 10/29/7 9/30/7 13/2/7 14/1/7 
f 9/22/2 11/21/2 15/31/2 13/32/2 
f 11/33/8 12/34/8 16/35/8 15/36/8 
f 12/28/4 10/27/4 14/37/4 16/38/4 
f 14/1/3 13/2/3 17/3/3 18/4/3 
f 13/32/2 15/31/2 19/39/2 17/40/2 
f 15/36/1 16/35/1 20/41/1 19/42/1 
f 16/38/4 14/37/4 18/43/4 20/44/4 
f 18/45/6 17/46/6 21/47/6 22/48/6 
f 17/40/2 19/39/2 23/49/2 21/50/2 
f 19/51/5 20/52/5 24/53/5 23/54/5 
f 20/44/4 18/43/4 22/55/4 24/56/4 
f 22/29/8 21/30/8 2/2/8 1/1/8 
f 21/50/2 23/49/2 5/6/2 2/5/2 
f 23/57/7 24/58/7 7/10/7 5/9/7 
f 24/56/4 22/55/4 1/14/4 7/13/4 
# 24 polygons

