# 3ds Max Wavefront OBJ Exporter v0.97b - (c)2007 guruware
# File Created: 06.12.2014 11:07:55

#
# object Crystal
#

v  -0.3289 -0.3167 0.3288
v  -0.2234 -0.3148 0.3822
v  -0.2219 -0.2176 0.3809
v  -0.3166 -0.2143 0.3609
v  -0.0499 -0.3294 0.5181
v  0.0572 -0.3240 0.5138
v  0.0550 -0.2213 0.5105
v  -0.0521 -0.2241 0.5415
v  0.2346 -0.3239 0.3426
v  0.3388 -0.3265 0.3565
v  0.3511 -0.2281 0.3326
v  0.2362 -0.2238 0.3724
v  -0.3381 -0.0570 0.5457
v  -0.2310 -0.0551 0.5556
v  -0.2307 0.0501 0.5503
v  -0.3326 0.0443 0.5127
v  -0.0437 -0.0376 0.7183
v  0.0633 -0.0406 0.7319
v  0.0683 0.0656 0.7266
v  -0.0388 0.0687 0.7330
v  0.2332 -0.0506 0.6353
v  0.3400 -0.0433 0.5940
v  0.3336 0.0579 0.6066
v  0.2288 0.0546 0.6102
v  -0.2939 0.2317 0.3543
v  -0.1920 0.2333 0.3747
v  -0.2074 0.3421 0.3838
v  -0.3100 0.3276 0.3430
v  -0.0491 0.2150 0.5546
v  0.0579 0.2219 0.5506
v  0.0423 0.3271 0.5117
v  -0.0648 0.3185 0.5120
v  0.2340 0.2271 0.3892
v  0.3418 0.2179 0.3828
v  0.3257 0.3178 0.3034
v  0.2186 0.3330 0.3268
v  -0.0895 -0.0886 0.1119
v  0.0899 -0.0884 0.1114
v  0.1107 -0.1018 0.5777
v  -0.0918 -0.0923 0.5641
v  0.0896 0.0889 0.1107
v  0.0970 0.0997 0.5638
v  -0.0890 0.0894 0.1130
v  -0.1055 0.1092 0.6005
v  -0.2537 -0.0818 0.0422
v  -0.1759 -0.1049 0.4438
v  -0.3798 -0.0933 0.3649
v  -0.1578 0.0962 0.4410
v  -0.2537 0.0818 0.0422
v  -0.3620 0.1001 0.3335
v  -0.0857 -0.2524 0.0422
v  -0.0884 -0.3773 0.3411
v  -0.1190 -0.1759 0.3941
v  0.0857 -0.2524 0.0422
v  0.1141 -0.3511 0.3428
v  0.0836 -0.1506 0.3601
v  0.1083 0.1582 0.3766
v  -0.0942 0.1632 0.4326
v  0.0857 0.2524 0.0422
v  0.0854 0.3429 0.3405
v  -0.0857 0.2524 0.0422
v  -0.1172 0.3615 0.3664
v  0.2537 -0.0818 0.0422
v  0.3697 -0.0924 0.3971
v  0.1843 -0.0951 0.4837
v  0.2537 0.0818 0.0422
v  0.3815 0.1011 0.4295
v  0.1695 0.1060 0.4791
v  -0.2537 -0.2419 -0.0013
v  -0.3640 -0.3446 0.1631
v  -0.3534 -0.1609 0.2023
v  -0.1624 -0.3489 0.2408
v  -0.1528 -0.1424 0.2865
v  0.1697 -0.3647 0.2084
v  0.1794 -0.1601 0.2504
v  0.2537 -0.2419 -0.0013
v  0.3649 -0.3692 0.2032
v  0.3755 -0.1763 0.1763
v  -0.1580 0.1866 0.2645
v  -0.3611 0.1591 0.1802
v  -0.1822 0.3740 0.2397
v  -0.2537 0.2419 -0.0013
v  -0.3818 0.3543 0.1632
v  0.3665 0.1438 0.2424
v  0.1730 0.1690 0.2256
v  0.2537 0.2419 -0.0013
v  0.3458 0.3298 0.1430
v  0.1487 0.3582 0.1881
# 88 vertices

vn -0.3370 -0.1267 0.9330
vn -0.4521 0.0193 0.8917
vn -0.3441 -0.1181 0.9315
vn -0.2075 -0.2703 0.9402
vn 0.1662 -0.0924 0.9818
vn 0.0381 0.0330 0.9987
vn 0.1604 -0.0867 0.9832
vn 0.2772 -0.2030 0.9391
vn 0.1229 -0.0463 0.9913
vn -0.1223 0.2486 0.9608
vn 0.0958 -0.0130 0.9953
vn 0.3055 -0.2765 0.9112
vn -0.2255 0.1849 0.9565
vn -0.0931 0.0504 0.9944
vn -0.2222 0.1815 0.9580
vn -0.3448 0.3075 0.8869
vn -0.0344 -0.0430 0.9985
vn -0.1245 0.0555 0.9907
vn -0.0350 -0.0422 0.9985
vn 0.0556 -0.1398 0.9886
vn 0.1977 0.0753 0.9774
vn 0.3646 -0.0926 0.9265
vn 0.2072 0.0661 0.9761
vn 0.0252 0.2334 0.9720
vn -0.2869 -0.0311 0.9575
vn -0.1936 -0.1087 0.9750
vn -0.2829 -0.0344 0.9585
vn -0.3744 0.0458 0.9261
vn -0.0074 0.3625 0.9320
vn 0.0120 0.3487 0.9372
vn -0.0088 0.3634 0.9316
vn -0.0281 0.3770 0.9258
vn 0.1686 0.5820 0.7955
vn 0.0989 0.6291 0.7710
vn 0.1833 0.5713 0.8000
vn 0.2521 0.5182 0.8173
vn 0.0010 -0.9996 -0.0288
vn -0.0463 -0.9989 -0.0084
vn 0.9999 0.0012 -0.0163
vn 0.9970 0.0650 -0.0427
vn 0.0021 0.9992 -0.0406
vn 0.0424 0.9988 -0.0245
vn -1.0000 0.0030 -0.0050
vn -0.9976 -0.0623 -0.0313
vn -0.0183 -0.9984 -0.0540
vn -0.0373 -0.9980 -0.0503
vn 0.9787 -0.0042 0.2054
vn 0.9654 -0.0835 0.2472
vn -0.0164 0.9975 -0.0690
vn 0.0273 0.9995 -0.0150
vn -0.9314 -0.0000 -0.3640
vn -0.9363 0.0294 -0.3500
vn -0.9997 -0.0164 -0.0158
vn -0.9840 -0.1131 -0.1377
vn 0.0000 -0.9501 -0.3120
vn 0.1217 -0.9162 -0.3818
vn 0.9993 -0.0325 0.0173
vn 0.9871 0.1542 -0.0426
vn -0.0004 0.9553 0.2956
vn -0.0804 0.9674 0.2403
vn 0.0008 -0.9677 0.2520
vn 0.0381 -0.9735 0.2255
vn 0.9998 0.0217 -0.0053
vn 0.9898 0.1042 -0.0967
vn 0.0000 0.9478 -0.3189
vn 0.0507 0.9557 -0.2899
vn -0.9998 0.0117 -0.0189
vn -0.9899 -0.1319 -0.0515
vn 0.0242 -0.9990 -0.0378
vn 0.0056 -0.9998 -0.0196
vn 0.9496 -0.0000 -0.3135
vn 0.9504 -0.0060 -0.3109
vn 0.0222 0.9984 -0.0511
vn 0.0106 0.9985 -0.0533
vn -0.9693 -0.0002 0.2458
vn -0.9745 -0.0666 0.2143
vn -0.8596 0.1340 -0.4930
vn -0.8708 0.1501 -0.4682
vn 0.0527 -0.9059 -0.4202
vn 0.1537 -0.8811 -0.4473
vn 0.9450 -0.1092 0.3084
vn 0.9441 -0.1128 0.3097
vn -0.1223 0.9178 0.3777
vn -0.1839 0.9560 0.2284
vn -0.9180 -0.1344 0.3732
vn -0.8538 -0.0655 0.5165
vn -0.0752 -0.8645 -0.4970
vn -0.0337 -0.8358 -0.5480
vn 0.7848 0.1626 -0.5980
vn 0.8390 -0.1200 -0.5308
vn 0.1277 0.9124 0.3889
vn 0.2288 0.8814 0.4134
vn -0.1657 -0.8625 0.4782
vn -0.0655 -0.8913 0.4487
vn 0.9209 0.1396 0.3639
vn 0.9332 0.1631 0.3200
vn 0.0815 0.8514 -0.5182
vn 0.1006 0.8683 -0.4857
vn -0.8191 -0.1505 -0.5535
vn -0.8244 -0.1352 -0.5497
vn 0.0668 -0.9631 0.2607
vn -0.1535 -0.7554 0.6371
vn 0.8697 -0.1295 -0.4763
vn 0.8805 -0.1435 -0.4517
vn -0.0935 0.8245 -0.5581
vn 0.0037 0.8531 -0.5218
vn -0.8524 0.1844 0.4892
vn -0.9084 -0.0338 0.4166
vn -0.9786 0.0125 0.2053
vn -0.9701 0.0414 0.2393
vn -0.0957 -0.9762 0.1945
vn -0.0736 -0.9807 0.1809
vn 0.8510 -0.1512 0.5029
vn 0.9176 -0.0087 0.3975
vn -0.2338 0.9037 0.3587
vn -0.0938 0.8110 0.5775
vn -0.9414 -0.2120 0.2623
vn -0.9180 -0.1043 0.3827
vn 0.1243 -0.9728 0.1954
vn 0.0590 -0.9668 0.2486
vn 0.9621 0.1258 0.2420
vn 0.9497 0.0304 0.3116
vn -0.0610 0.9402 0.3352
vn 0.1036 0.8925 0.4390
vn -0.8931 -0.0494 0.4471
vn -0.9211 -0.0986 0.3766
vn -0.0152 -0.9639 0.2659
vn -0.0667 -0.9451 0.3199
vn 0.9891 -0.0343 0.1429
vn 0.9792 -0.0767 0.1881
vn 0.2148 0.9032 0.3715
vn 0.1496 0.9313 0.3320
vn -0.1790 -0.9283 0.3259
vn -0.0009 -0.9803 0.1974
vn 0.8431 -0.0685 0.5334
vn 0.9002 0.0192 0.4351
vn -0.1483 0.9370 0.3163
vn -0.1610 0.9434 0.2899
vn -0.9723 0.1218 0.1996
vn -0.9736 0.1170 0.1962
vn -0.0672 -0.9344 0.3497
vn -0.0712 -0.9329 0.3529
vn 0.9786 0.0797 0.1895
vn 0.9521 -0.0292 0.3044
vn 0.0903 0.9641 0.2495
vn 0.0402 0.9765 0.2116
vn -0.9339 -0.1241 0.3352
vn -0.8954 -0.0199 0.4449
vn 0.1349 -0.9565 0.2586
vn 0.1549 -0.9603 0.2321
vn 0.9664 -0.0990 0.2374
vn 0.9894 0.0448 0.1382
vn 0.0975 0.9409 0.3244
vn -0.0229 0.9727 0.2307
vn -0.9443 -0.0619 0.3231
vn -0.8994 0.0654 0.4323
vn -0.0329 -0.9241 0.3808
vn -0.0671 -0.9115 0.4058
vn 0.9673 0.1521 0.2030
vn 0.9618 0.1156 0.2483
vn -0.1764 0.9609 0.2133
vn -0.2064 0.9624 0.1769
vn -0.9215 -0.0644 0.3829
vn -0.9283 -0.1146 0.3538
vn 0.0771 -0.9288 0.3625
vn 0.0735 -0.9275 0.3666
vn 0.9521 0.1683 0.2551
vn 0.9562 0.2155 0.1981
vn 0.1193 0.9630 0.2415
vn -0.0800 0.9942 0.0714
vn -0.9389 0.0061 0.3442
vn -0.9412 -0.0031 0.3379
vn -0.1533 -0.8846 0.4404
vn -0.0580 -0.9337 0.3533
vn 0.9741 0.1808 0.1355
vn 0.9764 0.2071 0.0620
vn 0.1637 0.9818 0.0959
vn 0.1599 0.9827 0.0933
vn -0.9302 -0.0470 0.3640
vn -0.8721 0.1478 0.4665
# 180 vertex normals

vt 1.0000 0.0000 0.0000
vt 1.0000 1.0000 0.0000
vt 0.0000 1.0000 0.0000
vt 0.0000 0.0000 0.0000
# 4 texture coords

g Crystal
s 1
f 1/1/1 2/2/2 3/3/3 
f 3/3/3 4/4/4 1/1/1 
f 5/1/5 6/2/6 7/3/7 
f 7/3/7 8/4/8 5/1/5 
f 9/1/9 10/2/10 11/3/11 
f 11/3/11 12/4/12 9/1/9 
f 13/1/13 14/2/14 15/3/15 
f 15/3/15 16/4/16 13/1/13 
f 17/1/17 18/2/18 19/3/19 
f 19/3/19 20/4/20 17/1/17 
f 21/1/21 22/2/22 23/3/23 
f 23/3/23 24/4/24 21/1/21 
f 25/1/25 26/2/26 27/3/27 
f 27/3/27 28/4/28 25/1/25 
f 29/1/29 30/2/30 31/3/31 
f 31/3/31 32/4/32 29/1/29 
f 33/1/33 34/2/34 35/3/35 
f 35/3/35 36/4/36 33/1/33 
s off
f 37/4/37 38/1/37 39/2/37 
f 39/2/38 40/3/38 37/4/38 
f 38/4/39 41/1/39 42/2/39 
f 42/2/40 39/3/40 38/4/40 
f 41/4/41 43/1/41 44/2/41 
f 44/2/42 42/3/42 41/4/42 
f 43/4/43 37/1/43 40/2/43 
f 40/2/44 44/3/44 43/4/44 
f 45/4/45 37/1/45 46/2/45 
f 46/2/46 47/3/46 45/4/46 
f 37/4/47 43/1/47 48/2/47 
f 48/2/48 46/3/48 37/4/48 
f 43/4/49 49/1/49 50/2/49 
f 50/2/50 48/3/50 43/4/50 
f 49/4/51 45/1/51 47/2/51 
f 47/2/52 50/3/52 49/4/52 
f 37/4/53 51/1/53 52/2/53 
f 52/2/54 53/3/54 37/4/54 
f 51/4/55 54/1/55 55/2/55 
f 55/2/56 52/3/56 51/4/56 
f 54/4/57 38/1/57 56/2/57 
f 56/2/58 55/3/58 54/4/58 
f 38/4/59 37/1/59 53/2/59 
f 53/2/60 56/3/60 38/4/60 
f 43/4/61 41/1/61 57/2/61 
f 57/2/62 58/3/62 43/4/62 
f 41/4/63 59/1/63 60/2/63 
f 60/2/64 57/3/64 41/4/64 
f 59/4/65 61/1/65 62/2/65 
f 62/2/66 60/3/66 59/4/66 
f 61/4/67 43/1/67 58/2/67 
f 58/2/68 62/3/68 61/4/68 
f 38/4/69 63/1/69 64/2/69 
f 64/2/70 65/3/70 38/4/70 
f 63/4/71 66/1/71 67/2/71 
f 67/2/72 64/3/72 63/4/72 
f 66/4/73 41/1/73 68/2/73 
f 68/2/74 67/3/74 66/4/74 
f 41/4/75 38/1/75 65/2/75 
f 65/2/76 68/3/76 41/4/76 
f 45/4/77 69/1/77 70/2/77 
f 70/2/78 71/3/78 45/4/78 
f 69/4/79 51/1/79 72/2/79 
f 72/2/80 70/3/80 69/4/80 
f 51/4/81 37/1/81 73/2/81 
f 73/2/82 72/3/82 51/4/82 
f 37/4/83 45/1/83 71/2/83 
f 71/2/84 73/3/84 37/4/84 
f 38/4/85 54/1/85 74/2/85 
f 74/2/86 75/3/86 38/4/86 
f 54/4/87 76/1/87 77/2/87 
f 77/2/88 74/3/88 54/4/88 
f 76/4/89 63/1/89 78/2/89 
f 78/2/90 77/3/90 76/4/90 
f 63/4/91 38/1/91 75/2/91 
f 75/2/92 78/3/92 63/4/92 
f 49/4/93 43/1/93 79/2/93 
f 79/2/94 80/3/94 49/4/94 
f 43/4/95 61/1/95 81/2/95 
f 81/2/96 79/3/96 43/4/96 
f 61/4/97 82/1/97 83/2/97 
f 83/2/98 81/3/98 61/4/98 
f 82/4/99 49/1/99 80/2/99 
f 80/2/100 83/3/100 82/4/100 
f 41/4/101 66/1/101 84/2/101 
f 84/2/102 85/3/102 41/4/102 
f 66/4/103 86/1/103 87/2/103 
f 87/2/104 84/3/104 66/4/104 
f 86/4/105 59/1/105 88/2/105 
f 88/2/106 87/3/106 86/4/106 
f 59/4/107 41/1/107 85/2/107 
f 85/2/108 88/3/108 59/4/108 
f 71/4/109 70/1/109 1/2/109 
f 1/2/110 4/3/110 71/4/110 
f 70/4/111 72/1/111 2/2/111 
f 2/2/112 1/3/112 70/4/112 
f 72/4/113 73/1/113 3/2/113 
f 3/2/114 2/3/114 72/4/114 
f 73/4/115 71/1/115 4/2/115 
f 4/2/116 3/3/116 73/4/116 
f 53/4/117 52/1/117 5/2/117 
f 5/2/118 8/3/118 53/4/118 
f 52/4/119 55/1/119 6/2/119 
f 6/2/120 5/3/120 52/4/120 
f 55/4/121 56/1/121 7/2/121 
f 7/2/122 6/3/122 55/4/122 
f 56/4/123 53/1/123 8/2/123 
f 8/2/124 7/3/124 56/4/124 
f 75/4/125 74/1/125 9/2/125 
f 9/2/126 12/3/126 75/4/126 
f 74/4/127 77/1/127 10/2/127 
f 10/2/128 9/3/128 74/4/128 
f 77/4/129 78/1/129 11/2/129 
f 11/2/130 10/3/130 77/4/130 
f 78/4/131 75/1/131 12/2/131 
f 12/2/132 11/3/132 78/4/132 
f 47/4/133 46/1/133 14/2/133 
f 14/2/134 13/3/134 47/4/134 
f 46/4/135 48/1/135 15/2/135 
f 15/2/136 14/3/136 46/4/136 
f 48/4/137 50/1/137 16/2/137 
f 16/2/138 15/3/138 48/4/138 
f 50/4/139 47/1/139 13/2/139 
f 13/2/140 16/3/140 50/4/140 
f 40/4/141 39/1/141 18/2/141 
f 18/2/142 17/3/142 40/4/142 
f 39/4/143 42/1/143 19/2/143 
f 19/2/144 18/3/144 39/4/144 
f 42/4/145 44/1/145 20/2/145 
f 20/2/146 19/3/146 42/4/146 
f 44/4/147 40/1/147 17/2/147 
f 17/2/148 20/3/148 44/4/148 
f 65/4/149 64/1/149 22/2/149 
f 22/2/150 21/3/150 65/4/150 
f 64/4/151 67/1/151 23/2/151 
f 23/2/152 22/3/152 64/4/152 
f 67/4/153 68/1/153 24/2/153 
f 24/2/154 23/3/154 67/4/154 
f 68/4/155 65/1/155 21/2/155 
f 21/2/156 24/3/156 68/4/156 
f 80/4/157 79/1/157 26/2/157 
f 26/2/158 25/3/158 80/4/158 
f 79/4/159 81/1/159 27/2/159 
f 27/2/160 26/3/160 79/4/160 
f 81/4/161 83/1/161 28/2/161 
f 28/2/162 27/3/162 81/4/162 
f 83/4/163 80/1/163 25/2/163 
f 25/2/164 28/3/164 83/4/164 
f 58/4/165 57/1/165 30/2/165 
f 30/2/166 29/3/166 58/4/166 
f 57/4/167 60/1/167 31/2/167 
f 31/2/168 30/3/168 57/4/168 
f 60/4/169 62/1/169 32/2/169 
f 32/2/170 31/3/170 60/4/170 
f 62/4/171 58/1/171 29/2/171 
f 29/2/172 32/3/172 62/4/172 
f 85/4/173 84/1/173 34/2/173 
f 34/2/174 33/3/174 85/4/174 
f 84/4/175 87/1/175 35/2/175 
f 35/2/176 34/3/176 84/4/176 
f 87/4/177 88/1/177 36/2/177 
f 36/2/178 35/3/178 87/4/178 
f 88/4/179 85/1/179 33/2/179 
f 33/2/180 36/3/180 88/4/180 
# 162 faces

#
# object Base
#

v  -0.2813 -0.2813 0.0010
v  -0.1250 -0.3750 0.0010
v  -0.1250 -0.1250 0.1031
v  -0.3750 -0.1250 0.0010
v  0.1250 -0.3750 0.0010
v  0.1250 -0.1250 0.1031
v  0.2813 -0.2813 0.0010
v  0.3750 -0.1250 0.0010
v  -0.1250 0.1250 0.1031
v  -0.3750 0.1250 0.0010
v  0.1250 0.1250 0.1031
v  0.3750 0.1250 0.0010
v  -0.1250 0.3750 0.0010
v  -0.2813 0.2813 0.0010
v  0.1250 0.3750 0.0010
v  0.2813 0.2813 0.0010
# 16 vertices

vn -0.2964 -0.2964 0.9079
vn -0.0903 -0.3764 0.9220
vn -0.1709 -0.1709 0.9704
vn -0.3764 -0.0903 0.9220
vn 0.1157 -0.3424 0.9324
vn 0.1855 -0.1855 0.9650
vn 0.0000 0.0000 1.0000
vn 0.3424 -0.1157 0.9324
vn -0.1855 0.1855 0.9650
vn -0.3424 0.1157 0.9324
vn 0.1709 0.1709 0.9704
vn 0.3764 0.0903 0.9220
vn -0.1157 0.3424 0.9324
vn 0.0903 0.3764 0.9220
vn 0.2964 0.2964 0.9079
# 15 vertex normals

vt 0.1252 0.1253 0.0005
vt 0.3335 0.0005 0.0005
vt 0.3335 0.3335 0.9995
vt 0.0005 0.3335 0.0005
vt 0.6665 0.0005 0.0005
vt 0.6665 0.3335 0.9995
vt 0.8747 0.1252 0.0005
vt 0.9995 0.3335 0.0005
vt 0.3335 0.6665 0.9995
vt 0.0005 0.6665 0.0005
vt 0.6665 0.6665 0.9995
vt 0.9995 0.6665 0.0005
vt 0.3335 0.9995 0.0005
vt 0.1253 0.8748 0.0005
vt 0.6665 0.9995 0.0005
vt 0.8748 0.8747 0.0005
# 16 texture coords

g Base
s 1
f 89/5/181 90/6/182 91/7/183 
f 91/7/183 92/8/184 89/5/181 
f 90/6/182 93/9/185 94/10/186 
f 94/10/186 91/7/183 90/6/182 
f 93/9/185 95/11/187 96/12/188 
f 96/12/188 94/10/186 93/9/185 
f 92/8/184 91/7/183 97/13/189 
f 97/13/189 98/14/190 92/8/184 
f 91/7/183 94/10/186 99/15/191 
f 99/15/191 97/13/189 91/7/183 
f 94/10/186 96/12/188 100/16/192 
f 100/16/192 99/15/191 94/10/186 
f 98/14/190 97/13/189 101/17/193 
f 101/17/193 102/18/187 98/14/190 
f 97/13/189 99/15/191 103/19/194 
f 103/19/194 101/17/193 97/13/189 
f 99/15/191 100/16/192 104/20/195 
f 104/20/195 103/19/194 99/15/191 
# 18 faces

