# 3ds Max Wavefront OBJ Exporter v0.97b - (c)2007 guruware
# File Created: 08.02.2013 19:46:15

#
# object Valve
#

v  0.3581 0.1268 0.4165
v  0.4025 0.1268 0.3121
v  0.4025 0.0891 0.3121
v  0.3581 0.0891 0.4165
v  0.5098 0.1268 0.2689
v  0.5098 0.0891 0.2689
v  0.6171 0.1268 0.3121
v  0.6171 0.0891 0.3121
v  0.6616 0.1268 0.4165
v  0.6616 0.0891 0.4165
v  0.6171 0.1268 0.5209
v  0.6171 0.0891 0.5209
v  0.5098 0.1268 0.5641
v  0.5098 0.0891 0.5641
v  0.4025 0.1268 0.5209
v  0.4025 0.0891 0.5209
# 16 vertices

vn -0.8769 0.0000 -0.4807
vn -0.2987 0.0000 -0.9544
vn 0.2987 -0.0000 -0.9544
vn 0.8769 -0.0000 -0.4807
vn 0.8769 -0.0000 0.4807
vn 0.2987 -0.0000 0.9544
vn -0.2987 0.0000 0.9544
vn -0.8769 0.0000 0.4807
vn -0.0000 1.0000 -0.0000
vn 0.0000 1.0000 -0.0000
vn 0.0000 1.0000 0.0000
vn -0.0000 -1.0000 -0.0000
vn -0.0000 -1.0000 0.0000
# 13 vertex normals

vt 0.5000 0.8984 0.0005
vt 0.5000 0.8280 0.1468
vt 0.5466 0.8280 0.1468
vt 0.5466 0.8984 0.0005
vt 0.5466 0.9687 0.1468
vt 0.5000 0.9687 0.1468
vt 0.5466 0.8280 0.8532
vt 0.5466 0.8984 0.9995
vt 0.5000 0.8984 0.9995
vt 0.5000 0.8280 0.8532
vt 0.5466 0.9687 0.8532
vt 0.5000 0.9687 0.8532
vt 0.3996 0.9679 0.0005
vt 0.3508 0.9477 0.0005
vt 0.3306 0.8989 0.0005
vt 0.3508 0.8501 0.0005
vt 0.3996 0.8299 0.0005
vt 0.4484 0.8501 0.0005
vt 0.4686 0.8989 0.0005
vt 0.4484 0.9477 0.0005
vt 0.3508 0.8501 0.9995
vt 0.3996 0.8299 0.9995
vt 0.4484 0.8501 0.9995
vt 0.4686 0.8989 0.9995
vt 0.4484 0.9477 0.9995
vt 0.3996 0.9679 0.9995
vt 0.3508 0.9477 0.9995
vt 0.3306 0.8989 0.9995
# 28 texture coords

g Valve
f 1/1/1 2/2/1 3/3/1 
f 3/3/1 4/4/1 1/1/1 
f 2/3/2 5/4/2 6/1/2 
f 6/1/2 3/2/2 2/3/2 
f 5/4/3 7/5/3 8/6/3 
f 8/6/3 6/1/3 5/4/3 
f 7/7/4 9/8/4 10/9/4 
f 10/9/4 8/10/4 7/7/4 
f 9/8/5 11/11/5 12/12/5 
f 12/12/5 10/9/5 9/8/5 
f 11/12/6 13/9/6 14/8/6 
f 14/8/6 12/11/6 11/12/6 
f 13/9/7 15/10/7 16/7/7 
f 16/7/7 14/8/7 13/9/7 
f 15/6/8 1/1/8 4/4/8 
f 4/4/8 16/5/8 15/6/8 
f 13/13/9 11/14/9 9/15/9 
f 9/15/10 7/16/10 5/17/10 
f 5/17/9 2/18/9 1/19/9 
f 9/15/11 5/17/11 1/19/11 
f 13/13/11 9/15/11 1/19/11 
f 15/20/10 13/13/10 1/19/10 
f 3/21/12 6/22/12 8/23/12 
f 8/23/13 10/24/13 12/25/13 
f 12/25/13 14/26/13 16/27/13 
f 8/23/12 12/25/12 16/27/12 
f 3/21/13 8/23/13 16/27/13 
f 4/28/13 3/21/13 16/27/13 
# 28 faces

#
# object Valvebase
#

v  0.3609 0.2375 0.2681
v  0.3609 0.2375 0.5579
v  0.6587 0.2375 0.5579
v  0.6587 0.2375 0.2681
v  0.4680 0.1112 0.3723
v  0.5517 0.1112 0.3723
v  0.5517 0.1112 0.4537
v  0.4680 0.1112 0.4537
v  0.6587 0.1825 0.2681
v  0.3609 0.1825 0.2681
v  0.6587 0.1825 0.5579
v  0.3609 0.1825 0.5579
v  0.5517 0.1825 0.3723
v  0.4680 0.1825 0.3723
v  0.5517 0.1825 0.4537
v  0.4680 0.1825 0.4537
# 16 vertices

vn 0.0000 1.0000 0.0000
vn 0.0000 -1.0000 -0.0000
vn 0.0000 0.0000 -1.0000
vn 1.0000 0.0000 0.0000
vn 0.0000 -0.0000 1.0000
vn -1.0000 0.0000 0.0000
# 6 vertex normals

vt 0.2031 0.8131 0.0005
vt 0.2031 0.9688 0.0005
vt 0.0469 0.9688 0.0005
vt 0.0469 0.8131 0.0005
vt 0.1094 0.8750 0.9995
vt 0.1409 0.8750 0.9995
vt 0.1409 0.9066 0.9995
vt 0.1094 0.9066 0.9995
vt 0.0467 0.7348 0.0005
vt 0.2033 0.7348 0.0005
vt 0.2033 0.7812 0.0005
vt 0.0467 0.7812 0.0005
vt 0.0467 0.7348 0.9995
vt 0.2033 0.7348 0.9995
vt 0.2033 0.7812 0.9995
vt 0.0467 0.7812 0.9995
vt 0.0469 0.8131 0.4352
vt 0.2031 0.8131 0.4352
vt 0.1408 0.8750 0.4352
vt 0.1093 0.8750 0.4352
vt 0.2031 0.9688 0.4352
vt 0.1408 0.9066 0.4352
vt 0.0469 0.9688 0.4352
vt 0.1093 0.9066 0.4352
vt 0.2032 0.9221 0.3596
vt 0.2503 0.9221 0.3596
vt 0.2503 0.9686 0.3596
vt 0.2032 0.9686 0.3596
vt 0.2032 0.9221 0.6404
vt 0.2503 0.9221 0.6404
vt 0.2503 0.9686 0.6404
vt 0.2032 0.9686 0.6404
# 32 texture coords

g Valvebase
f 17/29/14 18/30/14 19/31/14 
f 19/31/14 20/32/14 17/29/14 
f 21/33/15 22/34/15 23/35/15 
f 23/35/15 24/36/15 21/33/15 
f 17/37/16 20/38/16 25/39/16 
f 25/39/16 26/40/16 17/37/16 
f 20/41/17 19/42/17 27/43/17 
f 27/43/17 25/44/17 20/41/17 
f 19/41/18 18/42/18 28/43/18 
f 28/43/18 27/44/18 19/41/18 
f 18/37/19 17/38/19 26/39/19 
f 26/39/19 28/40/19 18/37/19 
f 26/45/15 25/46/15 29/47/15 
f 29/47/15 30/48/15 26/45/15 
f 25/46/15 27/49/15 31/50/15 
f 31/50/15 29/47/15 25/46/15 
f 27/49/15 28/51/15 32/52/15 
f 32/52/15 31/50/15 27/49/15 
f 28/51/15 26/45/15 30/48/15 
f 30/48/15 32/52/15 28/51/15 
f 30/53/16 29/54/16 22/55/16 
f 22/55/16 21/56/16 30/53/16 
f 29/57/17 31/58/17 23/59/17 
f 23/59/17 22/60/17 29/57/17 
f 31/57/18 32/58/18 24/59/18 
f 24/59/18 23/60/18 31/57/18 
f 32/53/19 30/54/19 21/55/19 
f 21/55/19 24/56/19 32/53/19 
# 28 faces

#
# object Top2
#

v  0.2186 0.2065 0.8435
v  0.2186 0.7935 0.8435
v  0.8056 0.7935 0.8435
v  0.8056 0.2065 0.8435
v  0.2186 0.2065 0.9160
v  0.8056 0.2065 0.9160
v  0.8056 0.7935 0.9160
v  0.2186 0.7935 0.9160
# 8 vertices

vn 0.0000 0.0000 -1.0000
vn 0.0000 0.0000 1.0000
vn 0.0000 -1.0000 0.0000
vn 1.0000 0.0000 0.0000
vn 0.0000 1.0000 0.0000
vn -1.0000 0.0000 0.0000
# 6 vertex normals

vt 0.8125 0.0621 0.0005
vt 0.8125 0.3908 0.0005
vt 0.4688 0.3908 0.0005
vt 0.4688 0.0621 0.0005
vt 0.4688 0.0621 0.9995
vt 0.8125 0.0621 0.9995
vt 0.8125 0.3908 0.9995
vt 0.4688 0.3908 0.9995
vt 0.4687 0.0005 0.0005
vt 0.8126 0.0005 0.0005
vt 0.8126 0.0621 0.0005
vt 0.4687 0.0621 0.0005
vt 0.4687 0.0005 0.9995
vt 0.8126 0.0005 0.9995
vt 0.8126 0.0621 0.9995
vt 0.4687 0.0621 0.9995
# 16 texture coords

g Top2
f 33/61/20 34/62/20 35/63/20 
f 35/63/20 36/64/20 33/61/20 
f 37/65/21 38/66/21 39/67/21 
f 39/67/21 40/68/21 37/65/21 
f 33/69/22 36/70/22 38/71/22 
f 38/71/22 37/72/22 33/69/22 
f 36/73/23 35/74/23 39/75/23 
f 39/75/23 38/76/23 36/73/23 
f 35/73/24 34/74/24 40/75/24 
f 40/75/24 39/76/24 35/73/24 
f 34/69/25 33/70/25 37/71/25 
f 37/71/25 40/72/25 34/69/25 
# 12 faces

#
# object Top
#

v  0.1615 0.1511 0.7507
v  0.1615 0.8543 0.7507
v  0.8583 0.8543 0.7507
v  0.8583 0.1511 0.7507
v  0.1615 0.1511 0.8651
v  0.8583 0.1511 0.8651
v  0.8583 0.8543 0.8651
v  0.1615 0.8543 0.8651
# 8 vertices

vn 0.0000 0.0000 -1.0000
vn 0.0000 0.0000 1.0000
vn 0.0000 -1.0000 0.0000
vn 1.0000 0.0000 0.0000
vn 0.0000 1.0000 0.0000
vn -1.0000 0.0000 0.0000
# 6 vertex normals

vt 0.4372 0.0777 0.0005
vt 0.4372 0.5158 0.0005
vt 0.0159 0.5158 0.0005
vt 0.0159 0.0777 0.0005
vt 0.0159 0.0777 0.9995
vt 0.4372 0.0777 0.9995
vt 0.4372 0.5158 0.9995
vt 0.0159 0.5158 0.9995
vt 0.0158 0.0002 0.0005
vt 0.4377 0.0002 0.0005
vt 0.4377 0.0781 0.0005
vt 0.0158 0.0781 0.0005
vt 0.0158 0.0002 0.9995
vt 0.4377 0.0002 0.9995
vt 0.4377 0.0781 0.9995
vt 0.0158 0.0781 0.9995
# 16 texture coords

g Top
f 41/77/26 42/78/26 43/79/26 
f 43/79/26 44/80/26 41/77/26 
f 45/81/27 46/82/27 47/83/27 
f 47/83/27 48/84/27 45/81/27 
f 41/85/28 44/86/28 46/87/28 
f 46/87/28 45/88/28 41/85/28 
f 44/89/29 43/90/29 47/91/29 
f 47/91/29 46/92/29 44/89/29 
f 43/89/30 42/90/30 48/91/30 
f 48/91/30 47/92/30 43/89/30 
f 42/85/31 41/86/31 45/87/31 
f 45/87/31 48/88/31 42/85/31 
# 12 faces

#
# object Blazerod3
#

v  0.1866 0.7648 0.0241
v  0.1866 0.8276 0.0241
v  0.2494 0.8276 0.0241
v  0.2494 0.7648 0.0241
v  0.1866 0.7648 0.7984
v  0.2494 0.7648 0.7984
v  0.2494 0.8276 0.7984
v  0.1866 0.8276 0.7984
# 8 vertices

vn 0.0000 0.0000 -1.0000
vn 0.0000 0.0000 1.0000
vn 0.0000 -1.0000 0.0000
vn 1.0000 0.0000 0.0000
vn 0.0000 1.0000 0.0000
vn -1.0000 0.0000 0.0000
# 6 vertex normals

vt 0.9658 0.0631 0.0005
vt 0.9658 0.1642 0.0005
vt 0.8647 0.1642 0.0005
vt 0.8647 0.0631 0.0005
vt 0.8647 0.0631 0.9995
vt 0.9658 0.0631 0.9995
vt 0.9658 0.1642 0.9995
vt 0.8647 0.1642 0.9995
vt 0.9377 0.6096 0.0005
vt 0.9844 0.6096 0.0005
vt 0.9844 0.9844 0.0005
vt 0.9377 0.9844 0.0005
vt 0.9377 0.6096 0.9995
vt 0.9844 0.6096 0.9995
vt 0.9844 0.9844 0.9995
vt 0.9377 0.9844 0.9995
# 16 texture coords

g Blazerod3
f 49/93/32 50/94/32 51/95/32 
f 51/95/32 52/96/32 49/93/32 
f 53/97/33 54/98/33 55/99/33 
f 55/99/33 56/100/33 53/97/33 
f 49/101/34 52/102/34 54/103/34 
f 54/103/34 53/104/34 49/101/34 
f 52/105/35 51/106/35 55/107/35 
f 55/107/35 54/108/35 52/105/35 
f 51/105/36 50/106/36 56/107/36 
f 56/107/36 55/108/36 51/105/36 
f 50/101/37 49/102/37 53/103/37 
f 53/103/37 56/104/37 50/101/37 
# 12 faces

#
# object Blazerod4
#

v  0.1866 0.1778 0.0241
v  0.1866 0.2406 0.0241
v  0.2494 0.2406 0.0241
v  0.2494 0.1778 0.0241
v  0.1866 0.1778 0.7984
v  0.2494 0.1778 0.7984
v  0.2494 0.2406 0.7984
v  0.1866 0.2406 0.7984
# 8 vertices

vn 0.0000 0.0000 -1.0000
vn 0.0000 0.0000 1.0000
vn 0.0000 -1.0000 0.0000
vn 1.0000 0.0000 0.0000
vn 0.0000 1.0000 0.0000
vn -1.0000 0.0000 0.0000
# 6 vertex normals

vt 0.9658 0.0631 0.0005
vt 0.9658 0.1642 0.0005
vt 0.8647 0.1642 0.0005
vt 0.8647 0.0631 0.0005
vt 0.8647 0.0631 0.9995
vt 0.9658 0.0631 0.9995
vt 0.9658 0.1642 0.9995
vt 0.8647 0.1642 0.9995
vt 0.9377 0.6096 0.0005
vt 0.9844 0.6096 0.0005
vt 0.9844 0.9844 0.0005
vt 0.9377 0.9844 0.0005
vt 0.9377 0.6096 0.9995
vt 0.9844 0.6096 0.9995
vt 0.9844 0.9844 0.9995
vt 0.9377 0.9844 0.9995
# 16 texture coords

g Blazerod4
f 57/109/38 58/110/38 59/111/38 
f 59/111/38 60/112/38 57/109/38 
f 61/113/39 62/114/39 63/115/39 
f 63/115/39 64/116/39 61/113/39 
f 57/117/40 60/118/40 62/119/40 
f 62/119/40 61/120/40 57/117/40 
f 60/121/41 59/122/41 63/123/41 
f 63/123/41 62/124/41 60/121/41 
f 59/121/42 58/122/42 64/123/42 
f 64/123/42 63/124/42 59/121/42 
f 58/117/43 57/118/43 61/119/43 
f 61/119/43 64/120/43 58/117/43 
# 12 faces

#
# object Base
#

v  0.1614 0.1542 0.0053
v  0.1614 0.8512 0.0053
v  0.8584 0.8512 0.0053
v  0.8584 0.1542 0.0053
v  0.1614 0.1542 0.1201
v  0.8584 0.1542 0.1201
v  0.8584 0.8512 0.1201
v  0.1614 0.8512 0.1201
# 8 vertices

vn 0.0000 0.0000 -1.0000
vn 0.0000 0.0000 1.0000
vn 0.0000 -1.0000 0.0000
vn 1.0000 0.0000 0.0000
vn 0.0000 1.0000 0.0000
vn -1.0000 0.0000 0.0000
# 6 vertex normals

vt 0.4372 0.0777 0.0005
vt 0.4372 0.5158 0.0005
vt 0.0159 0.5158 0.0005
vt 0.0159 0.0777 0.0005
vt 0.0159 0.0777 0.9995
vt 0.4372 0.0777 0.9995
vt 0.4372 0.5158 0.9995
vt 0.0159 0.5158 0.9995
vt 0.0158 0.0002 0.0005
vt 0.4377 0.0002 0.0005
vt 0.4377 0.0781 0.0005
vt 0.0158 0.0781 0.0005
vt 0.0158 0.0002 0.9995
vt 0.4377 0.0002 0.9995
vt 0.4377 0.0781 0.9995
vt 0.0158 0.0781 0.9995
# 16 texture coords

g Base
f 65/125/44 66/126/44 67/127/44 
f 67/127/44 68/128/44 65/125/44 
f 69/129/45 70/130/45 71/131/45 
f 71/131/45 72/132/45 69/129/45 
f 65/133/46 68/134/46 70/135/46 
f 70/135/46 69/136/46 65/133/46 
f 68/137/47 67/138/47 71/139/47 
f 71/139/47 70/140/47 68/137/47 
f 67/137/48 66/138/48 72/139/48 
f 72/139/48 71/140/48 67/137/48 
f 66/133/49 65/134/49 69/135/49 
f 69/135/49 72/136/49 66/133/49 
# 12 faces

#
# object Blazerod1
#

v  0.7704 0.1778 0.0241
v  0.7704 0.2406 0.0241
v  0.8332 0.2406 0.0241
v  0.8332 0.1778 0.0241
v  0.7704 0.1778 0.7984
v  0.8332 0.1778 0.7984
v  0.8332 0.2406 0.7984
v  0.7704 0.2406 0.7984
# 8 vertices

vn 0.0000 0.0000 -1.0000
vn 0.0000 0.0000 1.0000
vn 0.0000 -1.0000 0.0000
vn 1.0000 0.0000 0.0000
vn 0.0000 1.0000 0.0000
vn -1.0000 0.0000 0.0000
# 6 vertex normals

vt 0.9658 0.0631 0.0005
vt 0.9658 0.1642 0.0005
vt 0.8647 0.1642 0.0005
vt 0.8647 0.0631 0.0005
vt 0.8647 0.0631 0.9995
vt 0.9658 0.0631 0.9995
vt 0.9658 0.1642 0.9995
vt 0.8647 0.1642 0.9995
vt 0.9377 0.6096 0.0005
vt 0.9844 0.6096 0.0005
vt 0.9844 0.9844 0.0005
vt 0.9377 0.9844 0.0005
vt 0.9377 0.6096 0.9995
vt 0.9844 0.6096 0.9995
vt 0.9844 0.9844 0.9995
vt 0.9377 0.9844 0.9995
# 16 texture coords

g Blazerod1
f 73/141/50 74/142/50 75/143/50 
f 75/143/50 76/144/50 73/141/50 
f 77/145/51 78/146/51 79/147/51 
f 79/147/51 80/148/51 77/145/51 
f 73/149/52 76/150/52 78/151/52 
f 78/151/52 77/152/52 73/149/52 
f 76/153/53 75/154/53 79/155/53 
f 79/155/53 78/156/53 76/153/53 
f 75/153/54 74/154/54 80/155/54 
f 80/155/54 79/156/54 75/153/54 
f 74/149/55 73/150/55 77/151/55 
f 77/151/55 80/152/55 74/149/55 
# 12 faces

#
# object Blazerod2
#

v  0.7704 0.7648 0.0241
v  0.7704 0.8276 0.0241
v  0.8332 0.8276 0.0241
v  0.8332 0.7648 0.0241
v  0.7704 0.7648 0.7984
v  0.8332 0.7648 0.7984
v  0.8332 0.8276 0.7984
v  0.7704 0.8276 0.7984
# 8 vertices

vn 0.0000 0.0000 -1.0000
vn 0.0000 0.0000 1.0000
vn 0.0000 -1.0000 0.0000
vn 1.0000 0.0000 0.0000
vn 0.0000 1.0000 0.0000
vn -1.0000 0.0000 0.0000
# 6 vertex normals

vt 0.9658 0.0631 0.0005
vt 0.9658 0.1642 0.0005
vt 0.8647 0.1642 0.0005
vt 0.8647 0.0631 0.0005
vt 0.8647 0.0631 0.9995
vt 0.9658 0.0631 0.9995
vt 0.9658 0.1642 0.9995
vt 0.8647 0.1642 0.9995
vt 0.9377 0.6096 0.0005
vt 0.9844 0.6096 0.0005
vt 0.9844 0.9844 0.0005
vt 0.9377 0.9844 0.0005
vt 0.9377 0.6096 0.9995
vt 0.9844 0.6096 0.9995
vt 0.9844 0.9844 0.9995
vt 0.9377 0.9844 0.9995
# 16 texture coords

g Blazerod2
f 81/157/56 82/158/56 83/159/56 
f 83/159/56 84/160/56 81/157/56 
f 85/161/57 86/162/57 87/163/57 
f 87/163/57 88/164/57 85/161/57 
f 81/165/58 84/166/58 86/167/58 
f 86/167/58 85/168/58 81/165/58 
f 84/169/59 83/170/59 87/171/59 
f 87/171/59 86/172/59 84/169/59 
f 83/169/60 82/170/60 88/171/60 
f 88/171/60 87/172/60 83/169/60 
f 82/165/61 81/166/61 85/167/61 
f 85/167/61 88/168/61 82/165/61 
# 12 faces

#
# object Glass
#

v  0.2165 0.2093 0.0354
v  0.2165 0.7961 0.0354
v  0.8033 0.7961 0.0354
v  0.8033 0.2093 0.0354
v  0.2165 0.2093 0.7868
v  0.8033 0.2093 0.7868
v  0.8033 0.7961 0.7868
v  0.2165 0.7961 0.7868
# 8 vertices

vn 0.0000 0.0000 -1.0000
vn 0.0000 0.0000 1.0000
vn 0.0000 -1.0000 0.0000
vn 1.0000 0.0000 0.0000
vn 0.0000 1.0000 0.0000
vn -1.0000 0.0000 0.0000
# 6 vertex normals

vt 0.9658 0.0631 0.0005
vt 0.9658 0.1642 0.0005
vt 0.8647 0.1642 0.0005
vt 0.8647 0.0631 0.0005
vt 0.8647 0.0631 0.9995
vt 0.9658 0.0631 0.9995
vt 0.9658 0.1642 0.9995
vt 0.8647 0.1642 0.9995
vt 0.5630 0.6097 0.0005
vt 0.9218 0.6097 0.0005
vt 0.9218 0.9844 0.0005
vt 0.5630 0.9844 0.0005
vt 0.5630 0.6097 0.9995
vt 0.9218 0.6097 0.9995
vt 0.9218 0.9844 0.9995
vt 0.5630 0.9844 0.9995
# 16 texture coords

g Glass
f 89/173/62 90/174/62 91/175/62 
f 91/175/62 92/176/62 89/173/62 
f 93/177/63 94/178/63 95/179/63 
f 95/179/63 96/180/63 93/177/63 
f 89/181/64 92/182/64 94/183/64 
f 94/183/64 93/184/64 89/181/64 
f 92/185/65 91/186/65 95/187/65 
f 95/187/65 94/188/65 92/185/65 
f 91/185/66 90/186/66 96/187/66 
f 96/187/66 95/188/66 91/185/66 
f 90/181/67 89/182/67 93/183/67 
f 93/183/67 96/184/67 90/181/67 
# 12 faces

