# 3ds Max Wavefront OBJ Exporter v0.97b - (c)2007 guruware
# File Created: 11.05.2013 21:09:13

#
# object Cylinder001
#

v  2.2500 -2.0000 6.0000
v  1.1250 -2.0000 7.9486
v  1.1250 -4.5000 7.9486
v  2.2500 -4.5000 6.0000
v  1.1250 -2.0000 10.9486
v  -1.1250 -2.0000 10.9486
v  -1.1250 -3.2375 10.9486
v  1.1250 -3.2375 10.9486
v  -1.1250 -2.0000 7.9486
v  -2.2500 -2.0000 6.0000
v  -2.2500 -4.5000 6.0000
v  -1.1250 -4.5000 7.9486
v  -1.1250 -2.0000 4.0514
v  -1.1250 -4.5000 4.0514
v  -1.1250 -2.0000 1.0514
v  1.1250 -2.0000 1.0514
v  1.1250 -3.2375 1.0514
v  -1.1250 -3.2375 1.0514
v  1.1250 -2.0000 4.0514
v  1.1250 -4.5000 4.0514
v  0.5476 -7.5000 6.9486
v  -0.5476 -7.5000 6.9486
v  -1.0953 -7.5000 6.0000
v  -0.5476 -7.5000 5.0514
v  0.5476 -7.5000 5.0514
v  1.0953 -7.5000 6.0000
v  0.5476 -4.5000 6.9486
v  1.0953 -4.5000 6.0000
v  -0.5476 -4.5000 6.9486
v  -1.0953 -4.5000 6.0000
v  -0.5476 -4.5000 5.0514
v  0.5476 -4.5000 5.0514
v  0.5476 -6.5000 6.9486
v  1.0953 -6.5000 6.0000
v  -0.5476 -6.5000 6.9486
v  -1.0953 -6.5000 6.0000
v  -0.5476 -6.5000 5.0514
v  0.5476 -6.5000 5.0514
v  2.0953 -6.5000 6.0000
v  1.0476 -6.5000 7.8146
v  1.0476 -7.0379 7.8146
v  2.0953 -7.0379 6.0000
v  -1.0476 -6.5000 7.8146
v  -1.0476 -7.0379 7.8146
v  -2.0953 -6.5000 6.0000
v  -2.0953 -7.0379 6.0000
v  -1.0476 -6.5000 4.1854
v  -1.0476 -7.0379 4.1854
v  1.0476 -6.5000 4.1854
v  1.0476 -7.0379 4.1854
# 50 vertices

vn 0.8660 -0.0000 0.5000
vn -0.0000 -0.0000 1.0000
vn -0.8660 -0.0000 0.5000
vn -0.8660 0.0000 -0.5000
vn 0.0000 0.0000 -1.0000
vn 0.8660 0.0000 -0.5000
vn 0.0000 1.0000 0.0000
vn 0.0000 -1.0000 -0.0000
vn 1.0000 -0.0000 0.0000
vn -1.0000 0.0000 -0.0000
vn -0.0000 -0.9217 0.3879
vn -1.0000 0.0000 0.0000
vn 1.0000 0.0000 0.0000
vn 0.0000 -0.9217 -0.3879
vn 0.4077 -0.8823 0.2354
vn 0.4077 -0.8823 -0.2354
vn 0.0000 -0.8823 -0.4707
vn -0.4077 -0.8823 -0.2354
vn -0.4077 -0.8823 0.2354
vn -0.0000 -0.8823 0.4707
# 20 vertex normals

vt 0.4903 0.9862 0.0000
vt 0.3013 0.9862 0.0000
vt 0.3013 0.7437 0.0000
vt 0.4903 0.7437 0.0000
vt 0.2381 0.7575 0.0000
vt 0.0190 0.7575 0.0000
vt 0.0190 0.6370 0.0000
vt 0.2381 0.6370 0.0000
vt 0.6793 0.9862 0.0000
vt 0.6793 0.7437 0.0000
vt 0.0615 0.4283 0.0000
vt 0.0161 0.3497 0.0000
vt 0.0615 0.2710 0.0000
vt 0.1523 0.2710 0.0000
vt 0.1977 0.3497 0.0000
vt 0.1523 0.4283 0.0000
vt 0.3710 0.3852 0.0000
vt 0.5024 0.3852 0.0000
vt 0.5681 0.4990 0.0000
vt 0.5024 0.6127 0.0000
vt 0.3710 0.6127 0.0000
vt 0.3053 0.4990 0.0000
vt 0.0103 0.9862 0.0000
vt 0.0103 0.8661 0.0000
vt 0.0615 0.1499 0.0000
vt 0.1523 0.1499 0.0000
vt 0.9903 0.7653 0.0000
vt 0.7540 0.7653 0.0000
vt 0.7540 0.2626 0.0000
vt 0.9903 0.2626 0.0000
vt 0.9703 0.9862 0.0000
vt 0.9703 0.8661 0.0000
vt 0.1523 0.5494 0.0000
vt 0.0615 0.5494 0.0000
vt 0.1669 0.4990 0.0000
vt 0.3018 0.2653 0.0000
vt 0.5716 0.2653 0.0000
vt 0.7065 0.4990 0.0000
vt 0.5716 0.7327 0.0000
vt 0.3018 0.7327 0.0000
vt 0.5000 0.0545 0.0000
vt 0.6117 0.0545 0.0000
vt 0.6117 0.2584 0.0000
vt 0.5000 0.2584 0.0000
vt 0.7233 0.0545 0.0000
vt 0.7233 0.2584 0.0000
vt 0.8350 0.0545 0.0000
vt 0.8350 0.2584 0.0000
vt 0.1650 0.0545 0.0000
vt 0.2767 0.0545 0.0000
vt 0.2767 0.2584 0.0000
vt 0.1650 0.2584 0.0000
vt 0.3883 0.0545 0.0000
vt 0.3883 0.2584 0.0000
vt 0.0000 0.0000 0.0000
vt 0.1667 0.0000 0.0000
vt 0.1667 0.0428 0.0000
vt 0.0000 0.0428 0.0000
vt 0.3333 0.0000 0.0000
vt 0.3333 0.0428 0.0000
vt 0.5000 0.0000 0.0000
vt 0.5000 0.0428 0.0000
vt 0.6667 0.0000 0.0000
vt 0.6667 0.0428 0.0000
vt 0.8333 0.0000 0.0000
vt 0.8333 0.0428 0.0000
vt 1.0000 0.0000 0.0000
vt 1.0000 0.0428 0.0000
vt 0.3111 0.2814 0.0000
vt 0.1854 0.4990 0.0000
vt 0.5623 0.2814 0.0000
vt 0.6880 0.4990 0.0000
vt 0.5623 0.7166 0.0000
vt 0.3111 0.7166 0.0000
# 74 texture coords

g Cylinder001
s off
f 1/1/1 2/2/1 3/3/1 
f 3/3/1 4/4/1 1/1/1 
f 5/5/2 6/6/2 7/7/2 
f 7/7/2 8/8/2 5/5/2 
f 9/2/3 10/1/3 11/4/3 
f 11/4/3 12/3/3 9/2/3 
f 10/1/4 13/9/4 14/10/4 
f 14/10/4 11/4/4 10/1/4 
f 15/6/5 16/5/5 17/8/5 
f 17/8/5 18/7/5 15/6/5 
f 19/9/6 1/1/6 4/4/6 
f 4/4/6 20/10/6 19/9/6 
f 13/11/7 10/12/7 9/13/7 
f 9/13/7 2/14/7 1/15/7 
f 13/11/7 9/13/7 1/15/7 
f 19/16/7 13/11/7 1/15/7 
f 21/17/8 22/18/8 23/19/8 
f 23/19/8 24/20/8 25/21/8 
f 21/17/8 23/19/8 25/21/8 
f 26/22/8 21/17/8 25/21/8 
f 3/3/9 2/2/9 5/23/9 
f 5/23/9 8/24/9 3/3/9 
f 2/14/7 9/13/7 6/25/7 
f 6/25/7 5/26/7 2/14/7 
f 9/2/10 12/3/10 7/24/10 
f 7/24/10 6/23/10 9/2/10 
f 12/27/11 3/28/11 8/29/11 
f 8/29/11 7/30/11 12/27/11 
f 14/10/12 13/9/12 15/31/12 
f 15/31/12 18/32/12 14/10/12 
f 13/11/7 19/16/7 16/33/7 
f 16/33/7 15/34/7 13/11/7 
f 19/9/13 20/10/13 17/32/13 
f 17/32/13 16/31/13 19/9/13 
f 20/28/14 14/27/14 18/30/14 
f 18/30/14 17/29/14 20/28/14 
f 4/35/8 3/36/8 27/17/8 
f 27/17/8 28/22/8 4/35/8 
f 3/36/8 12/37/8 29/18/8 
f 29/18/8 27/17/8 3/36/8 
f 12/37/8 11/38/8 30/19/8 
f 30/19/8 29/18/8 12/37/8 
f 11/38/8 14/39/8 31/20/8 
f 31/20/8 30/19/8 11/38/8 
f 14/39/8 20/40/8 32/21/8 
f 32/21/8 31/20/8 14/39/8 
f 20/40/8 4/35/8 28/22/8 
f 28/22/8 32/21/8 20/40/8 
f 28/41/1 27/42/1 33/43/1 
f 33/43/1 34/44/1 28/41/1 
f 27/42/2 29/45/2 35/46/2 
f 35/46/2 33/43/2 27/42/2 
f 29/45/3 30/47/3 36/48/3 
f 36/48/3 35/46/3 29/45/3 
f 30/49/4 31/50/4 37/51/4 
f 37/51/4 36/52/4 30/49/4 
f 31/50/5 32/53/5 38/54/5 
f 38/54/5 37/51/5 31/50/5 
f 32/53/6 28/41/6 34/44/6 
f 34/44/6 38/54/6 32/53/6 
f 39/55/1 40/56/1 41/57/1 
f 41/57/1 42/58/1 39/55/1 
f 40/56/2 43/59/2 44/60/2 
f 44/60/2 41/57/2 40/56/2 
f 43/59/3 45/61/3 46/62/3 
f 46/62/3 44/60/3 43/59/3 
f 45/61/4 47/63/4 48/64/4 
f 48/64/4 46/62/4 45/61/4 
f 47/63/5 49/65/5 50/66/5 
f 50/66/5 48/64/5 47/63/5 
f 49/65/6 39/67/6 42/68/6 
f 42/68/6 50/66/6 49/65/6 
f 34/22/7 33/17/7 40/69/7 
f 40/69/7 39/70/7 34/22/7 
f 33/17/7 35/18/7 43/71/7 
f 43/71/7 40/69/7 33/17/7 
f 35/18/7 36/19/7 45/72/7 
f 45/72/7 43/71/7 35/18/7 
f 36/19/7 37/20/7 47/73/7 
f 47/73/7 45/72/7 36/19/7 
f 37/20/7 38/21/7 49/74/7 
f 49/74/7 47/73/7 37/20/7 
f 38/21/7 34/22/7 39/70/7 
f 39/70/7 49/74/7 38/21/7 
f 21/17/15 26/22/15 42/70/15 
f 42/70/15 41/69/15 21/17/15 
f 26/22/16 25/21/16 50/74/16 
f 50/74/16 42/70/16 26/22/16 
f 25/21/17 24/20/17 48/73/17 
f 48/73/17 50/74/17 25/21/17 
f 24/20/18 23/19/18 46/72/18 
f 46/72/18 48/73/18 24/20/18 
f 23/19/19 22/18/19 44/71/19 
f 44/71/19 46/72/19 23/19/19 
f 22/18/20 21/17/20 41/69/20 
f 41/69/20 44/71/20 22/18/20 
# 96 faces

