# 3ds Max Wavefront OBJ Exporter v0.97b - (c)2007 guruware
# File Created: 29.11.2014 09:05:41

#
# object Base
#

v  -1.5000 -1.5000 0.0000
v  -1.5000 -0.5000 0.0000
v  -0.5000 -0.5000 0.0000
v  -0.5000 -1.5000 0.0000
v  0.5000 -0.5000 0.0000
v  0.5000 -1.5000 0.0000
v  1.5000 -0.5000 0.0000
v  1.5000 -1.5000 0.0000
v  -1.5000 0.5000 0.0000
v  -0.5000 0.5000 0.0000
v  0.5000 0.5000 0.0000
v  1.5000 0.5000 0.0000
v  -1.5000 1.5000 0.0000
v  -0.5000 1.5000 0.0000
v  0.5000 1.5000 0.0000
v  1.5000 1.5000 0.0000
v  -0.5000 -0.6750 2.0000
v  -0.5000 -0.5000 2.0000
v  -0.6750 -0.5000 2.0000
v  0.5000 -0.5000 2.0000
v  0.5000 -0.6750 2.0000
v  0.6750 -0.5000 2.0000
v  -0.5000 0.5000 2.0000
v  -0.6750 0.5000 2.0000
v  -0.5000 -0.5000 1.0000
v  0.5000 -0.5000 1.0000
v  0.5000 0.5000 1.0000
v  -0.5000 0.5000 1.0000
v  0.6750 0.5000 2.0000
v  0.5000 0.5000 2.0000
v  -0.5000 0.6795 2.0000
v  0.5000 0.6705 2.0000
v  -0.5000 -1.5000 1.0000
v  -1.5000 -1.5000 1.0000
v  0.5000 -1.5000 1.0000
v  1.5000 -1.5000 1.0000
v  1.5000 -0.5000 1.0000
v  1.5000 0.5000 1.0000
v  1.5000 1.5000 1.0000
v  0.5000 1.5000 1.0000
v  -0.5000 1.5000 1.0000
v  -1.5000 1.5000 1.0000
v  -1.5000 0.5000 1.0000
v  -1.5000 -0.5000 1.0000
v  -0.6750 -0.5000 1.8750
v  -0.6750 0.5000 1.8750
v  -0.5000 -0.6750 1.0000
v  -0.6750 -0.5000 1.0000
v  0.5000 -0.6750 1.8750
v  -0.5000 -0.6750 1.8750
v  0.5000 -0.6750 1.0000
v  0.6750 -0.5000 1.0000
v  0.6750 0.5000 1.8750
v  0.6750 -0.5000 1.8750
v  0.5000 0.6705 1.0000
v  0.6750 0.5000 1.0000
v  -0.5000 0.6795 1.8750
v  0.5000 0.6705 1.8750
v  -0.6750 0.5000 1.0000
v  -0.5000 0.6795 1.0000
# 60 vertices

vn 0.0000 0.0000 -1.0000
vn 0.0000 0.0000 1.0000
vn 0.0000 -1.0000 0.0000
vn 1.0000 0.0000 0.0000
vn 0.0000 1.0000 0.0000
vn -1.0000 0.0000 0.0000
vn -0.3962 0.0000 0.9182
vn -0.7276 0.0000 0.6860
vn 0.0000 -0.3962 0.9182
vn 0.0000 -0.7276 0.6860
vn 0.3962 0.0000 0.9182
vn 0.7276 0.0000 0.6860
vn 0.0016 0.3964 0.9181
vn 0.0000 0.3975 0.9176
vn 0.0037 0.7274 0.6862
vn 0.0066 0.7257 0.6880
vn -0.7071 -0.7071 -0.0000
vn -0.7071 -0.7071 0.0000
vn 0.7071 -0.7071 0.0000
vn 0.7071 -0.7071 -0.0000
vn 0.6978 0.7163 0.0000
vn 0.0090 1.0000 0.0000
vn -0.7161 0.6980 0.0000
vn 0.0000 -1.0000 -0.0000
# 24 vertex normals

vt 0.5781 0.8516 0.0000
vt 0.5781 0.7266 0.0000
vt 0.7031 0.7266 0.0000
vt 0.7031 0.8516 0.0000
vt 0.8281 0.7266 0.0000
vt 0.8281 0.8516 0.0000
vt 0.9531 0.7266 0.0000
vt 0.9531 0.8516 0.0000
vt 0.5781 0.6016 0.0000
vt 0.7031 0.6016 0.0000
vt 0.8281 0.6016 0.0000
vt 0.9531 0.6016 0.0000
vt 0.5781 0.4766 0.0000
vt 0.7031 0.4766 0.0000
vt 0.8281 0.4766 0.0000
vt 0.9531 0.4766 0.0000
vt 0.0000 0.9766 0.0000
vt 0.0234 0.9766 0.0000
vt 0.0234 1.0000 0.0000
vt 0.0234 0.8516 0.0000
vt 0.0000 0.8516 0.0000
vt 0.0234 0.8281 0.0000
vt 0.1484 0.9766 0.0000
vt 0.1484 1.0000 0.0000
vt 0.1484 0.8516 0.0000
vt 0.1484 0.8281 0.0000
vt 0.1719 0.9766 0.0000
vt 0.1719 0.8516 0.0000
vt 0.1953 0.7266 0.0000
vt 0.3203 0.7266 0.0000
vt 0.3203 0.8516 0.0000
vt 0.1953 0.8516 0.0000
vt 0.4453 0.7266 0.0000
vt 0.4453 0.8516 0.0000
vt 0.5703 0.7266 0.0000
vt 0.5703 0.8516 0.0000
vt 0.4453 0.9844 0.0000
vt 0.3203 0.9844 0.0000
vt 0.7578 0.8594 0.0000
vt 0.7578 0.9844 0.0000
vt 0.6563 0.9844 0.0000
vt 0.6328 0.8594 0.0000
vt 0.6328 0.9609 0.0000
vt 0.5781 0.8594 0.0000
vt 0.4531 0.8594 0.0000
vt 0.5781 0.9844 0.0000
vt 0.4453 1.0000 0.0000
vt 0.3203 1.0000 0.0000
vt 0.6094 0.8594 0.0000
vt 0.6094 0.9844 0.0000
vt 0.5781 1.0000 0.0000
vt 0.6094 1.0000 0.0000
vt 0.1797 0.8594 0.0000
vt 0.3047 0.8594 0.0000
vt 0.3047 0.9844 0.0000
vt 0.1797 0.9844 0.0000
# 56 texture coords

g Base
s 2
f 1/1/1 2/2/1 3/3/1 
f 3/3/1 4/4/1 1/1/1 
f 4/4/1 3/3/1 5/5/1 
f 5/5/1 6/6/1 4/4/1 
f 6/6/1 5/5/1 7/7/1 
f 7/7/1 8/8/1 6/6/1 
f 2/2/1 9/9/1 10/10/1 
f 10/10/1 3/3/1 2/2/1 
f 3/3/1 10/10/1 11/11/1 
f 11/11/1 5/5/1 3/3/1 
f 5/5/1 11/11/1 12/12/1 
f 12/12/1 7/7/1 5/5/1 
f 9/9/1 13/13/1 14/14/1 
f 14/14/1 10/10/1 9/9/1 
f 10/10/1 14/14/1 15/15/1 
f 15/15/1 11/11/1 10/10/1 
f 11/11/1 15/15/1 16/16/1 
f 16/16/1 12/12/1 11/11/1 
s 4
f 17/17/2 18/18/2 19/19/2 
f 20/20/2 18/18/2 17/17/2 
f 17/17/2 21/21/2 20/20/2 
f 22/22/2 20/20/2 21/21/2 
f 18/18/2 23/23/2 24/24/2 
f 24/24/2 19/19/2 18/18/2 
f 25/20/2 26/25/2 27/23/2 
f 27/23/2 28/18/2 25/20/2 
f 22/22/2 29/26/2 30/25/2 
f 30/25/2 20/20/2 22/22/2 
f 24/24/2 23/23/2 31/27/2 
f 30/25/2 32/28/2 31/27/2 
f 31/27/2 23/23/2 30/25/2 
f 30/25/2 29/26/2 32/28/2 
s 8
f 1/29/3 4/30/3 33/31/3 
f 33/31/3 34/32/3 1/29/3 
f 4/30/3 6/33/3 35/34/3 
f 35/34/3 33/31/3 4/30/3 
f 6/33/3 8/35/3 36/36/3 
f 36/36/3 35/34/3 6/33/3 
s 16
f 8/29/4 7/30/4 37/31/4 
f 37/31/4 36/32/4 8/29/4 
f 7/30/4 12/33/4 38/34/4 
f 38/34/4 37/31/4 7/30/4 
f 12/33/4 16/35/4 39/36/4 
f 39/36/4 38/34/4 12/33/4 
s 32
f 16/29/5 15/30/5 40/31/5 
f 40/31/5 39/32/5 16/29/5 
f 15/30/5 14/33/5 41/34/5 
f 41/34/5 40/31/5 15/30/5 
f 14/33/5 13/35/5 42/36/5 
f 42/36/5 41/34/5 14/33/5 
s 64
f 13/29/6 9/30/6 43/31/6 
f 43/31/6 42/32/6 13/29/6 
f 9/30/6 2/33/6 44/34/6 
f 44/34/6 43/31/6 9/30/6 
f 2/33/6 1/35/6 34/36/6 
f 34/36/6 44/34/6 2/33/6 
s 4
f 43/31/7 44/34/7 45/37/8 
f 45/37/8 46/38/8 43/31/7 
f 34/39/2 33/40/9 47/41/2 
f 44/42/7 34/39/2 47/41/2 
f 48/43/2 44/42/7 47/41/2 
f 33/31/9 35/34/9 49/37/10 
f 49/37/10 50/38/10 33/31/9 
f 35/42/9 36/39/2 37/40/11 
f 51/43/2 35/42/9 37/40/11 
f 51/43/2 37/40/11 52/41/2 
f 37/31/11 38/34/11 53/37/12 
f 53/37/12 54/38/12 37/31/11 
f 39/39/2 40/40/13 55/41/2 
f 38/42/11 39/39/2 55/41/2 
f 56/43/2 38/42/11 55/41/2 
f 40/31/13 41/34/14 57/37/15 
f 57/37/15 58/38/16 40/31/13 
f 41/42/14 42/39/2 43/40/7 
f 41/42/14 43/40/7 59/41/2 
f 60/43/2 41/42/14 59/41/2 
s off
f 47/44/6 33/45/6 50/46/6 
f 35/45/4 51/44/4 49/46/4 
f 52/44/3 37/45/3 54/46/3 
f 38/45/5 56/44/5 53/46/5 
f 55/44/4 40/45/4 58/46/4 
f 41/45/6 60/44/6 57/46/6 
f 59/44/5 43/45/5 46/46/5 
f 44/45/3 48/44/3 45/46/3 
f 46/38/6 45/37/6 19/47/6 
f 19/47/6 24/48/6 46/38/6 
f 48/49/17 47/44/17 50/46/17 
f 45/50/18 48/49/18 50/46/18 
f 45/50/18 50/46/18 17/51/18 
f 45/50/18 17/51/18 19/52/18 
f 50/38/3 49/37/3 21/47/3 
f 21/47/3 17/48/3 50/38/3 
f 51/44/19 52/49/19 54/50/19 
f 49/46/20 51/44/20 54/50/20 
f 49/46/19 54/50/19 22/52/19 
f 49/46/19 22/52/19 21/51/19 
f 54/38/4 53/37/4 29/47/4 
f 29/47/4 22/48/4 54/38/4 
f 56/44/21 55/49/21 58/50/21 
f 53/46/21 56/44/21 58/50/21 
f 53/46/21 58/50/21 32/52/21 
f 53/46/21 32/52/21 29/51/21 
f 58/38/22 57/37/22 31/47/22 
f 31/47/22 32/48/22 58/38/22 
f 60/44/23 59/49/23 46/50/23 
f 57/46/23 60/44/23 46/50/23 
f 57/46/23 46/50/23 24/52/23 
f 57/46/23 24/52/23 31/51/23 
f 26/53/5 25/54/5 18/55/5 
f 18/55/5 20/56/5 26/53/5 
f 25/53/4 28/54/4 23/55/4 
f 23/55/4 18/56/4 25/53/4 
f 28/53/24 27/54/24 30/55/24 
f 30/55/24 23/56/24 28/53/24 
f 27/53/6 26/54/6 20/55/6 
f 20/55/6 30/56/6 27/53/6 
# 116 faces

#
# object Tank
#

v  1.0000 1.0003 2.0000
v  1.3003 1.1247 2.0000
v  1.1244 1.3006 2.0000
v  0.8756 1.3006 2.0000
v  0.6997 1.1247 2.0000
v  0.6997 0.8759 2.0000
v  0.8756 0.7001 2.0000
v  1.1244 0.7001 2.0000
v  1.3003 0.8759 2.0000
v  1.4157 1.1725 1.8750
v  1.1722 1.4161 1.8750
v  0.8278 1.4161 1.8750
v  0.5843 1.1725 1.8750
v  0.5843 0.8281 1.8750
v  0.8278 0.5846 1.8750
v  1.1722 0.5846 1.8750
v  1.4157 0.8281 1.8750
v  1.4157 1.1725 1.1250
v  1.1722 1.4161 1.1250
v  0.8278 1.4161 1.1250
v  0.5843 1.1725 1.1250
v  0.5843 0.8281 1.1250
v  0.8278 0.5846 1.1250
v  1.1722 0.5846 1.1250
v  1.4157 0.8281 1.1250
v  1.3003 1.1247 1.0000
v  1.1244 1.3006 1.0000
v  0.8756 1.3006 1.0000
v  0.6997 1.1247 1.0000
v  0.6997 0.8759 1.0000
v  0.8756 0.7001 1.0000
v  1.1244 0.7001 1.0000
v  1.3003 0.8759 1.0000
v  1.0000 1.0003 1.0000
# 34 vertices

vn 0.0000 0.0000 1.0000
vn 0.6786 0.2811 0.6786
vn 0.2811 0.6786 0.6786
vn -0.2811 0.6786 0.6786
vn -0.6786 0.2811 0.6786
vn -0.6786 -0.2811 0.6786
vn -0.2811 -0.6786 0.6786
vn 0.2811 -0.6786 0.6786
vn 0.6786 -0.2811 0.6786
vn 0.9239 0.3827 0.0000
vn 0.3827 0.9239 0.0000
vn -0.3827 0.9239 0.0000
vn -0.9239 0.3827 0.0000
vn -0.9239 -0.3827 0.0000
vn -0.3827 -0.9239 0.0000
vn 0.3827 -0.9239 0.0000
vn 0.9239 -0.3827 0.0000
vn 0.6786 0.2811 -0.6786
vn 0.2811 0.6786 -0.6786
vn -0.2811 0.6786 -0.6786
vn -0.6786 0.2811 -0.6786
vn -0.6786 -0.2811 -0.6786
vn -0.2811 -0.6786 -0.6786
vn 0.2811 -0.6786 -0.6786
vn 0.6786 -0.2811 -0.6786
vn 0.0000 0.0000 -1.0000
# 26 vertex normals

vt 0.5938 0.8125 0.0000
vt 0.6563 0.9688 0.0000
vt 0.5313 0.9688 0.0000
vt 0.4375 0.8750 0.0000
vt 0.4375 0.7500 0.0000
vt 0.5313 0.6563 0.0000
vt 0.6563 0.6563 0.0000
vt 0.7500 0.7500 0.0000
vt 0.7500 0.8750 0.0000
vt 0.0313 0.9688 0.0000
vt 0.0313 0.8750 0.0000
vt 0.1875 0.8750 0.0000
vt 0.1875 0.9688 0.0000
vt 0.2500 0.9688 0.0000
vt 0.2500 0.8750 0.0000
vt 0.4063 0.8750 0.0000
vt 0.4063 0.9688 0.0000
vt 0.0313 0.5000 0.0000
vt 0.1875 0.5000 0.0000
vt 0.2500 0.5000 0.0000
vt 0.4063 0.5000 0.0000
vt 0.0313 0.4063 0.0000
vt 0.1875 0.4063 0.0000
vt 0.2500 0.4063 0.0000
vt 0.4063 0.4063 0.0000
# 25 texture coords

g Tank
s off
f 61/57/25 62/58/25 63/59/25 
f 61/57/25 63/59/25 64/60/25 
f 61/57/25 64/60/25 65/61/25 
f 61/57/25 65/61/25 66/62/25 
f 61/57/25 66/62/25 67/63/25 
f 61/57/25 67/63/25 68/64/25 
f 61/57/25 68/64/25 69/65/25 
f 61/57/25 69/65/25 62/58/25 
f 62/66/26 70/67/26 71/68/26 
f 62/66/26 71/68/26 63/69/26 
f 63/70/27 71/71/27 72/72/27 
f 63/70/27 72/72/27 64/73/27 
f 64/66/28 72/67/28 73/68/28 
f 64/66/28 73/68/28 65/69/28 
f 65/66/29 73/67/29 74/68/29 
f 65/66/29 74/68/29 66/69/29 
f 66/66/30 74/67/30 75/68/30 
f 66/66/30 75/68/30 67/69/30 
f 67/66/31 75/67/31 76/68/31 
f 67/66/31 76/68/31 68/69/31 
f 68/66/32 76/67/32 77/68/32 
f 68/66/32 77/68/32 69/69/32 
f 69/70/33 77/71/33 70/72/33 
f 69/70/33 70/72/33 62/73/33 
f 70/67/34 78/74/34 79/75/34 
f 70/67/34 79/75/34 71/68/34 
f 71/71/35 79/76/35 80/77/35 
f 71/71/35 80/77/35 72/72/35 
f 72/67/36 80/74/36 81/75/36 
f 72/67/36 81/75/36 73/68/36 
f 73/67/37 81/74/37 82/75/37 
f 73/67/37 82/75/37 74/68/37 
f 74/67/38 82/74/38 83/75/38 
f 74/67/38 83/75/38 75/68/38 
f 75/67/39 83/74/39 84/75/39 
f 75/67/39 84/75/39 76/68/39 
f 76/67/40 84/74/40 85/75/40 
f 76/67/40 85/75/40 77/68/40 
f 77/71/41 85/76/41 78/77/41 
f 77/71/41 78/77/41 70/72/41 
f 78/74/42 86/78/42 87/79/42 
f 78/74/42 87/79/42 79/75/42 
f 79/76/43 87/80/43 88/81/43 
f 79/76/43 88/81/43 80/77/43 
f 80/68/44 88/69/44 89/66/44 
f 80/68/44 89/66/44 81/67/44 
f 81/74/45 89/78/45 90/79/45 
f 81/74/45 90/79/45 82/75/45 
f 82/74/46 90/78/46 91/79/46 
f 82/74/46 91/79/46 83/75/46 
f 83/74/47 91/78/47 92/79/47 
f 83/74/47 92/79/47 84/75/47 
f 84/74/48 92/78/48 93/79/48 
f 84/74/48 93/79/48 85/75/48 
f 85/76/49 93/80/49 86/81/49 
f 85/76/49 86/81/49 78/77/49 
f 86/58/50 94/57/50 87/65/50 
f 87/65/50 94/57/50 88/64/50 
f 88/64/50 94/57/50 89/63/50 
f 89/63/50 94/57/50 90/62/50 
f 90/62/50 94/57/50 91/61/50 
f 91/61/50 94/57/50 92/60/50 
f 92/60/50 94/57/50 93/59/50 
f 93/59/50 94/57/50 86/58/50 
# 64 faces

