# 3ds Max Wavefront OBJ Exporter v0.97b - (c)2007 guruware
# File Created: 08.09.2013 16:20:40

#
# object Bucket
#

v  -0.3884 -0.3884 0.0042
v  -0.3884 0.3884 0.0042
v  0.3884 0.3884 0.0042
v  0.3884 -0.3884 0.0042
v  -0.3750 -0.3750 0.1164
v  0.3750 -0.3750 0.1164
v  0.3750 0.3750 0.1164
v  -0.3750 0.3750 0.1164
v  0.5000 -0.5000 1.1164
v  -0.5000 -0.5000 1.1164
v  0.5000 0.5000 1.1164
v  -0.5000 0.5000 1.1164
v  0.3750 -0.3750 1.1164
v  -0.3750 -0.3750 1.1164
v  0.3750 0.3750 1.1164
v  -0.3750 0.3750 1.1164
# 16 vertices

vn 0.0000 0.0000 -1.0000
vn 0.0000 0.0000 1.0000
vn 0.0000 -1.0000 0.0000
vn 1.0000 0.0000 0.0000
vn 0.0000 1.0000 0.0000
vn -1.0000 0.0000 0.0000
# 6 vertex normals

vt 0.9688 0.9688 0.0000
vt 0.6250 0.9688 0.0000
vt 0.6250 0.6250 0.0000
vt 0.9688 0.6250 0.0000
vt 0.0313 0.4687 0.0000
vt 0.4063 0.4688 0.0000
vt 0.4063 0.9688 0.0000
vt 0.0313 0.9688 0.0000
vt 0.4688 0.0313 0.0000
vt 0.9688 0.0313 0.0000
vt 0.9063 0.0938 0.0000
vt 0.5282 0.0938 0.0000
vt 0.9688 0.5353 0.0000
vt 0.9098 0.4664 0.0000
vt 0.4688 0.5353 0.0000
vt 0.5318 0.4682 0.0000
# 16 texture coords

g Bucket
s 2
f 1/1/1 2/2/1 3/3/1 
f 3/3/1 4/4/1 1/1/1 
s 4
f 5/3/2 6/4/2 7/1/2 
f 7/1/2 8/2/2 5/3/2 
s 8
f 1/5/3 4/6/3 9/7/3 
f 9/7/3 10/8/3 1/5/3 
s 16
f 4/5/4 3/6/4 11/7/4 
f 11/7/4 9/8/4 4/5/4 
s 32
f 3/5/5 2/6/5 12/7/5 
f 12/7/5 11/8/5 3/5/5 
s 64
f 2/5/6 1/6/6 10/7/6 
f 10/7/6 12/8/6 2/5/6 
s off
f 10/9/2 9/10/2 13/11/2 
f 13/11/2 14/12/2 10/9/2 
f 9/10/2 11/13/2 15/14/2 
f 15/14/2 13/11/2 9/10/2 
f 11/13/2 12/15/2 16/16/2 
f 16/16/2 15/14/2 11/13/2 
f 12/15/2 10/9/2 14/12/2 
f 14/12/2 16/16/2 12/15/2 
f 14/7/5 13/8/5 6/5/5 
f 6/5/5 5/6/5 14/7/5 
f 13/7/6 15/8/6 7/5/6 
f 7/5/6 6/6/6 13/7/6 
f 15/7/3 16/8/3 8/5/3 
f 8/5/3 7/6/3 15/7/3 
f 16/7/4 14/8/4 5/5/4 
f 5/5/4 8/6/4 16/7/4 
# 28 faces

#
# object Bucket_Liquid
#

v  -0.3841 0.3841 0.9881
v  -0.3841 -0.3841 0.9881
v  0.3841 0.3841 0.9881
v  0.3841 -0.3841 0.9881
# 4 vertices

vn 0.0000 0.0000 1.0000
# 1 vertex normals

vt 0.0000 1.0000 0.0000
vt 0.0000 0.0000 0.0000
vt 1.0000 1.0000 0.0000
vt 1.0000 0.0000 0.0000
# 4 texture coords

g Bucket_Liquid
s 1
f 17/17/7 18/18/7 19/19/7 
f 20/20/7 19/19/7 18/18/7 
# 2 faces

