# 3ds Max Wavefront OBJ Exporter v0.97b - (c)2007 guruware
# File Created: 03.10.2014 00:28:02

#
# object top
#

v  -0.2500 -0.2500 0.2500
v  -0.2500 -0.0833 0.2500
v  -0.0833 -0.0833 0.2500
v  -0.0833 -0.2500 0.2500
v  0.0833 -0.0833 0.2500
v  0.0833 -0.2500 0.2500
v  0.2500 -0.0833 0.2500
v  0.2500 -0.2500 0.2500
v  -0.2500 0.0833 0.2500
v  -0.0833 0.0833 0.2500
v  0.0833 0.0833 0.2500
v  0.2500 0.0833 0.2500
v  -0.2500 0.2500 0.2500
v  -0.0833 0.2500 0.2500
v  0.0833 0.2500 0.2500
v  0.2500 0.2500 0.2500
v  -0.2500 -0.2500 1.0000
v  -0.0833 -0.2500 1.0000
v  -0.0833 -0.0833 1.0000
v  -0.2500 -0.0833 1.0000
v  0.0833 -0.2500 1.0000
v  0.0833 -0.0833 1.0000
v  0.2500 -0.2500 1.0000
v  0.2500 -0.0833 1.0000
v  -0.0833 0.0833 1.0000
v  -0.2500 0.0833 1.0000
v  0.0833 0.0833 1.0000
v  0.2500 0.0833 1.0000
v  -0.0833 0.2500 1.0000
v  -0.2500 0.2500 1.0000
v  0.0833 0.2500 1.0000
v  0.2500 0.2500 1.0000
v  -0.0833 -0.2500 0.3125
v  -0.2500 -0.2500 0.3125
v  0.0833 -0.2500 0.3125
v  0.2500 -0.2500 0.3125
v  -0.0833 -0.2500 0.3750
v  -0.2500 -0.2500 0.3750
v  0.0833 -0.2500 0.3750
v  0.2500 -0.2500 0.3750
v  -0.0833 -0.2500 0.4375
v  -0.2500 -0.2500 0.4375
v  0.0833 -0.2500 0.4375
v  0.2500 -0.2500 0.4375
v  -0.0833 -0.2500 0.5000
v  -0.2500 -0.2500 0.5000
v  0.0833 -0.2500 0.5000
v  0.2500 -0.2500 0.5000
v  -0.0833 -0.2500 0.5625
v  -0.0833 -0.3000 0.5000
v  0.0833 -0.3000 0.5000
v  0.0833 -0.3000 0.5625
v  -0.0833 -0.3000 0.5625
v  0.0833 -0.2500 0.5625
v  0.0833 -0.2000 0.5625
v  -0.0833 -0.2000 0.6250
v  -0.0833 -0.2000 0.5625
v  0.2500 -0.2500 0.7500
v  0.0833 -0.2500 0.6875
v  -0.0833 -0.2500 0.6875
v  -0.2500 -0.2500 0.8750
v  0.0833 -0.2000 0.6875
v  -0.0833 -0.2000 0.7500
v  0.0833 -0.2500 0.8125
v  -0.0833 -0.2500 0.8125
v  0.0833 -0.2000 0.8125
v  -0.0833 -0.2000 0.8750
v  0.2500 -0.2500 0.8750
v  -0.0833 -0.2500 0.8750
v  0.0833 -0.2000 0.8750
v  0.0833 -0.2500 0.8750
v  -0.0833 -0.2500 0.9375
v  -0.2500 -0.2500 0.9375
v  -0.0833 -0.3000 0.8750
v  0.0833 -0.3000 0.8750
v  0.0833 -0.3000 0.9375
v  -0.0833 -0.3000 0.9375
v  0.2500 -0.2500 0.9375
v  0.0833 -0.2500 0.9375
v  0.2500 -0.0833 0.3125
v  0.2500 0.0833 0.3125
v  0.2500 0.2500 0.3125
v  0.2500 -0.0833 0.3750
v  0.2500 0.0833 0.3750
v  0.2500 0.2500 0.3750
v  0.2500 -0.0833 0.4375
v  0.2500 0.0833 0.4375
v  0.2500 0.2500 0.4375
v  0.2500 -0.0833 0.5000
v  0.2500 0.0833 0.5000
v  0.2500 0.2500 0.5000
v  0.2500 -0.0833 0.5625
v  0.3000 -0.0833 0.5000
v  0.3000 0.0833 0.5000
v  0.3000 0.0833 0.5625
v  0.3000 -0.0833 0.5625
v  0.2500 0.0833 0.5625
v  0.2000 0.0833 0.5625
v  0.2000 -0.0833 0.6250
v  0.2000 -0.0833 0.5625
v  0.2500 0.2500 0.7500
v  0.2500 0.0833 0.6875
v  0.2500 -0.0833 0.6875
v  0.2000 0.0833 0.6875
v  0.2000 -0.0833 0.7500
v  0.2500 0.0833 0.8125
v  0.2500 -0.0833 0.8125
v  0.2000 0.0833 0.8125
v  0.2000 -0.0833 0.8750
v  0.2500 0.2500 0.8750
v  0.2500 -0.0833 0.8750
v  0.2000 0.0833 0.8750
v  0.2500 0.0833 0.8750
v  0.2500 -0.0833 0.9375
v  0.3000 -0.0833 0.8750
v  0.3000 0.0833 0.8750
v  0.3000 0.0833 0.9375
v  0.3000 -0.0833 0.9375
v  0.2500 0.2500 0.9375
v  0.2500 0.0833 0.9375
v  0.0833 0.2500 0.3125
v  -0.0833 0.2500 0.3125
v  -0.2500 0.2500 0.3125
v  0.0833 0.2500 0.3750
v  -0.0833 0.2500 0.3750
v  -0.2500 0.2500 0.3750
v  0.0833 0.2500 0.4375
v  -0.0833 0.2500 0.4375
v  -0.2500 0.2500 0.4375
v  0.0833 0.2500 0.5000
v  -0.0833 0.2500 0.5000
v  -0.2500 0.2500 0.5000
v  0.0833 0.2500 0.5625
v  0.0833 0.3000 0.5000
v  -0.0833 0.3000 0.5000
v  -0.0833 0.3000 0.5625
v  0.0833 0.3000 0.5625
v  -0.0833 0.2500 0.5625
v  -0.0833 0.2000 0.5625
v  0.0833 0.2000 0.6250
v  0.0833 0.2000 0.5625
v  -0.2500 0.2500 0.7500
v  -0.0833 0.2500 0.6875
v  0.0833 0.2500 0.6875
v  -0.0833 0.2000 0.6875
v  0.0833 0.2000 0.7500
v  -0.0833 0.2500 0.8125
v  0.0833 0.2500 0.8125
v  -0.0833 0.2000 0.8125
v  0.0833 0.2000 0.8750
v  -0.2500 0.2500 0.8750
v  0.0833 0.2500 0.8750
v  -0.0833 0.2000 0.8750
v  -0.0833 0.2500 0.8750
v  0.0833 0.2500 0.9375
v  0.0833 0.3000 0.8750
v  -0.0833 0.3000 0.8750
v  -0.0833 0.3000 0.9375
v  0.0833 0.3000 0.9375
v  -0.2500 0.2500 0.9375
v  -0.0833 0.2500 0.9375
v  -0.2500 0.0833 0.3125
v  -0.2500 -0.0833 0.3125
v  -0.2500 0.0833 0.3750
v  -0.2500 -0.0833 0.3750
v  -0.2500 0.0833 0.4375
v  -0.2500 -0.0833 0.4375
v  -0.2500 0.0833 0.5000
v  -0.2500 -0.0833 0.5000
v  -0.2500 0.0833 0.5625
v  -0.3000 0.0833 0.5000
v  -0.3000 -0.0833 0.5000
v  -0.3000 -0.0833 0.5625
v  -0.3000 0.0833 0.5625
v  -0.2500 -0.0833 0.5625
v  -0.2000 -0.0833 0.5625
v  -0.2000 0.0833 0.6250
v  -0.2000 0.0833 0.5625
v  -0.2500 -0.0833 0.6875
v  -0.2500 0.0833 0.6875
v  -0.2000 -0.0833 0.6875
v  -0.2000 0.0833 0.7500
v  -0.2500 -0.0833 0.8125
v  -0.2500 0.0833 0.8125
v  -0.2000 -0.0833 0.8125
v  -0.2000 0.0833 0.8750
v  -0.2500 0.0833 0.8750
v  -0.2000 -0.0833 0.8750
v  -0.2500 -0.0833 0.8750
v  -0.2500 0.0833 0.9375
v  -0.3000 0.0833 0.8750
v  -0.3000 -0.0833 0.8750
v  -0.3000 -0.0833 0.9375
v  -0.3000 0.0833 0.9375
v  -0.2500 -0.0833 0.9375
# 195 vertices

vn 0.0000 0.0000 -1.0000
vn 0.0000 0.0000 1.0000
vn 0.0000 -1.0000 0.0000
vn 1.0000 0.0000 0.0000
vn 0.0000 1.0000 0.0000
vn -1.0000 0.0000 0.0000
# 6 vertex normals

vt 0.0469 0.9063 0.0000
vt 0.0469 0.8281 0.0000
vt 0.1250 0.8281 0.0000
vt 0.1250 0.9063 0.0000
vt 0.2188 0.8281 0.0000
vt 0.2188 0.9063 0.0000
vt 0.2969 0.8281 0.0000
vt 0.2969 0.9063 0.0000
vt 0.0469 0.7344 0.0000
vt 0.1250 0.7344 0.0000
vt 0.2188 0.7344 0.0000
vt 0.2969 0.7344 0.0000
vt 0.0469 0.6563 0.0000
vt 0.1250 0.6563 0.0000
vt 0.2188 0.6563 0.0000
vt 0.2969 0.6563 0.0000
vt 0.3281 0.6563 0.0000
vt 0.4063 0.6563 0.0000
vt 0.4063 0.7344 0.0000
vt 0.3281 0.7344 0.0000
vt 0.5000 0.6563 0.0000
vt 0.5000 0.7344 0.0000
vt 0.5781 0.6563 0.0000
vt 0.5781 0.7344 0.0000
vt 0.4063 0.8281 0.0000
vt 0.3281 0.8281 0.0000
vt 0.5000 0.8281 0.0000
vt 0.5781 0.8281 0.0000
vt 0.4063 0.9063 0.0000
vt 0.3281 0.9063 0.0000
vt 0.5000 0.9063 0.0000
vt 0.5781 0.9063 0.0000
vt 0.0000 0.0000 0.0000
vt 0.0781 -0.0000 0.0000
vt 0.0781 0.0313 0.0000
vt -0.0000 0.0313 0.0000
vt 0.1563 -0.0000 0.0000
vt 0.1563 0.0313 0.0000
vt 0.2344 -0.0000 0.0000
vt 0.2344 0.0313 0.0000
vt 0.0781 0.0625 0.0000
vt -0.0000 0.0625 0.0000
vt 0.1563 0.0625 0.0000
vt 0.2344 0.0625 0.0000
vt 0.0781 0.0938 0.0000
vt 0.0000 0.0938 0.0000
vt 0.1563 0.0938 0.0000
vt 0.2344 0.0938 0.0000
vt 0.0781 0.1250 0.0000
vt 0.0000 0.1211 0.0000
vt 0.1563 0.1250 0.0000
vt 0.2344 0.1211 0.0000
vt 0.0781 0.1563 0.0000
vt 0.2813 0.3750 0.0000
vt 0.3750 0.3750 0.0000
vt 0.3750 0.4219 0.0000
vt 0.2813 0.4219 0.0000
vt 0.1563 0.1563 0.0000
vt 0.3750 0.1250 0.0000
vt 0.2813 0.1563 0.0000
vt 0.2813 0.1250 0.0000
vt 0.2344 0.2813 0.0000
vt 0.1563 0.2500 0.0000
vt 0.0781 0.2500 0.0000
vt -0.0000 0.3438 0.0000
vt 0.3750 0.2031 0.0000
vt 0.2813 0.2500 0.0000
vt 0.1563 0.3125 0.0000
vt 0.0781 0.3125 0.0000
vt 0.3750 0.2813 0.0000
vt 0.2813 0.3125 0.0000
vt 0.2344 0.3438 0.0000
vt 0.0781 0.3438 0.0000
vt 0.3750 0.3125 0.0000
vt 0.1563 0.3438 0.0000
vt 0.0781 0.3750 0.0000
vt -0.0000 0.3750 0.0000
vt 0.2344 0.3750 0.0000
vt 0.1563 0.3750 0.0000
vt 0.0781 0.4063 0.0000
vt -0.0000 0.4063 0.0000
vt 0.1563 0.4063 0.0000
vt 0.2344 0.4063 0.0000
vt -0.0000 0.2813 0.0000
vt 0.2813 0.4375 0.0000
vt 0.3750 0.4375 0.0000
vt 0.3750 0.4688 0.0000
vt 0.2813 0.4688 0.0000
vt 0.4219 0.3750 0.0000
vt 0.4219 0.4219 0.0000
vt 0.3906 0.4219 0.0000
vt 0.3906 0.3750 0.0000
vt 0.5469 0.4063 0.0000
vt 0.4531 0.4063 0.0000
vt 0.4531 0.3750 0.0000
vt 0.5469 0.3750 0.0000
vt 0.5469 0.3906 0.0000
vt 0.4531 0.3906 0.0000
vt 0.5469 0.4375 0.0000
vt 0.4531 0.4375 0.0000
vt 0.4375 0.1250 0.0000
vt 0.4375 0.1875 0.0000
vt 0.4063 0.1250 0.0000
vt 0.4063 0.1875 0.0000
vt 0.4375 0.2656 0.0000
vt 0.4063 0.2656 0.0000
vt 0.4375 0.3125 0.0000
vt 0.4063 0.3125 0.0000
vt 0.4063 0.2188 0.0000
vt 0.4063 0.1563 0.0000
vt 0.4375 0.2031 0.0000
vt 0.4063 0.2031 0.0000
vt 0.4063 0.2344 0.0000
# 113 texture coords

g top
s 2
f 1/1/1 2/2/1 3/3/1 
f 3/3/1 4/4/1 1/1/1 
f 4/4/1 3/3/1 5/5/1 
f 5/5/1 6/6/1 4/4/1 
f 6/6/1 5/5/1 7/7/1 
f 7/7/1 8/8/1 6/6/1 
f 2/2/1 9/9/1 10/10/1 
f 10/10/1 3/3/1 2/2/1 
f 3/3/1 10/10/1 11/11/1 
f 11/11/1 5/5/1 3/3/1 
f 5/5/1 11/11/1 12/12/1 
f 12/12/1 7/7/1 5/5/1 
f 9/9/1 13/13/1 14/14/1 
f 14/14/1 10/10/1 9/9/1 
f 10/10/1 14/14/1 15/15/1 
f 15/15/1 11/11/1 10/10/1 
f 11/11/1 15/15/1 16/16/1 
f 16/16/1 12/12/1 11/11/1 
s 4
f 17/17/2 18/18/2 19/19/2 
f 19/19/2 20/20/2 17/17/2 
f 18/18/2 21/21/2 22/22/2 
f 22/22/2 19/19/2 18/18/2 
f 21/21/2 23/23/2 24/24/2 
f 24/24/2 22/22/2 21/21/2 
f 20/20/2 19/19/2 25/25/2 
f 25/25/2 26/26/2 20/20/2 
f 19/19/2 22/22/2 27/27/2 
f 27/27/2 25/25/2 19/19/2 
f 22/22/2 24/24/2 28/28/2 
f 28/28/2 27/27/2 22/22/2 
f 26/26/2 25/25/2 29/29/2 
f 29/29/2 30/30/2 26/26/2 
f 25/25/2 27/27/2 31/31/2 
f 31/31/2 29/29/2 25/25/2 
f 27/27/2 28/28/2 32/32/2 
f 32/32/2 31/31/2 27/27/2 
s 8
f 1/33/3 4/34/3 33/35/3 
f 33/35/3 34/36/3 1/33/3 
f 4/34/3 6/37/3 35/38/3 
f 35/38/3 33/35/3 4/34/3 
f 6/37/3 8/39/3 36/40/3 
f 36/40/3 35/38/3 6/37/3 
f 34/36/3 33/35/3 37/41/3 
f 37/41/3 38/42/3 34/36/3 
f 33/35/3 35/38/3 39/43/3 
f 39/43/3 37/41/3 33/35/3 
f 35/38/3 36/40/3 40/44/3 
f 40/44/3 39/43/3 35/38/3 
f 38/42/3 37/41/3 41/45/3 
f 41/45/3 42/46/3 38/42/3 
f 37/41/3 39/43/3 43/47/3 
f 43/47/3 41/45/3 37/41/3 
f 39/43/3 40/44/3 44/48/3 
f 44/48/3 43/47/3 39/43/3 
f 42/46/3 41/45/3 45/49/3 
f 45/49/3 46/50/3 42/46/3 
f 41/45/3 43/47/3 47/51/3 
f 47/51/3 45/49/3 41/45/3 
f 43/47/3 44/48/3 48/52/3 
f 48/52/3 47/51/3 43/47/3 
f 46/50/3 45/49/3 49/53/3 
f 50/54/3 51/55/3 52/56/3 
f 52/56/3 53/57/3 50/54/3 
f 48/52/3 54/58/3 47/51/3 
f 55/59/3 56/60/3 57/61/3 
f 54/58/3 48/52/3 58/62/3 
f 58/62/3 59/63/3 54/58/3 
f 46/50/3 49/53/3 60/64/3 
f 60/64/3 61/65/3 46/50/3 
f 56/60/3 55/59/3 62/66/3 
f 62/66/3 63/67/3 56/60/3 
f 58/62/3 64/68/3 59/63/3 
f 61/65/3 60/64/3 65/69/3 
f 63/67/3 62/66/3 66/70/3 
f 66/70/3 67/71/3 63/67/3 
f 64/68/3 58/62/3 68/72/3 
f 61/65/3 65/69/3 69/73/3 
f 67/71/3 66/70/3 70/74/3 
f 68/72/3 71/75/3 64/68/3 
f 61/65/3 69/73/3 72/76/3 
f 72/76/3 73/77/3 61/65/3 
f 74/54/3 75/55/3 76/56/3 
f 76/56/3 77/57/3 74/54/3 
f 71/75/3 68/72/3 78/78/3 
f 78/78/3 79/79/3 71/75/3 
f 73/77/3 72/76/3 18/80/3 
f 18/80/3 17/81/3 73/77/3 
f 72/76/3 79/79/3 21/82/3 
f 21/82/3 18/80/3 72/76/3 
f 79/79/3 78/78/3 23/83/3 
f 23/83/3 21/82/3 79/79/3 
s 16
f 8/33/4 7/34/4 80/35/4 
f 80/35/4 36/36/4 8/33/4 
f 7/34/4 12/37/4 81/38/4 
f 81/38/4 80/35/4 7/34/4 
f 12/37/4 16/39/4 82/40/4 
f 82/40/4 81/38/4 12/37/4 
f 36/36/4 80/35/4 83/41/4 
f 83/41/4 40/42/4 36/36/4 
f 80/35/4 81/38/4 84/43/4 
f 84/43/4 83/41/4 80/35/4 
f 81/38/4 82/40/4 85/44/4 
f 85/44/4 84/43/4 81/38/4 
f 40/42/4 83/41/4 86/45/4 
f 86/45/4 44/46/4 40/42/4 
f 83/41/4 84/43/4 87/47/4 
f 87/47/4 86/45/4 83/41/4 
f 84/43/4 85/44/4 88/48/4 
f 88/48/4 87/47/4 84/43/4 
f 44/46/4 86/45/4 89/49/4 
f 89/49/4 48/50/4 44/46/4 
f 86/45/4 87/47/4 90/51/4 
f 90/51/4 89/49/4 86/45/4 
f 87/47/4 88/48/4 91/52/4 
f 91/52/4 90/51/4 87/47/4 
f 48/50/4 89/49/4 92/53/4 
f 93/54/4 94/55/4 95/56/4 
f 95/56/4 96/57/4 93/54/4 
f 91/52/4 97/58/4 90/51/4 
f 92/53/4 58/84/4 48/50/4 
f 98/59/4 99/60/4 100/61/4 
f 97/58/4 91/52/4 101/62/4 
f 101/62/4 102/63/4 97/58/4 
f 58/84/4 92/53/4 103/64/4 
f 99/60/4 98/59/4 104/66/4 
f 104/66/4 105/67/4 99/60/4 
f 101/62/4 106/68/4 102/63/4 
f 58/84/4 103/64/4 107/69/4 
f 107/69/4 68/65/4 58/84/4 
f 105/67/4 104/66/4 108/70/4 
f 108/70/4 109/71/4 105/67/4 
f 106/68/4 101/62/4 110/72/4 
f 68/65/4 107/69/4 111/73/4 
f 109/71/4 108/70/4 112/74/4 
f 110/72/4 113/75/4 106/68/4 
f 68/65/4 111/73/4 114/76/4 
f 114/76/4 78/77/4 68/65/4 
f 115/54/4 116/55/4 117/56/4 
f 117/56/4 118/57/4 115/54/4 
f 113/75/4 110/72/4 119/78/4 
f 119/78/4 120/79/4 113/75/4 
f 78/77/4 114/76/4 24/80/4 
f 24/80/4 23/81/4 78/77/4 
f 114/76/4 120/79/4 28/82/4 
f 28/82/4 24/80/4 114/76/4 
f 120/79/4 119/78/4 32/83/4 
f 32/83/4 28/82/4 120/79/4 
s 32
f 16/33/5 15/34/5 121/35/5 
f 121/35/5 82/36/5 16/33/5 
f 15/34/5 14/37/5 122/38/5 
f 122/38/5 121/35/5 15/34/5 
f 14/37/5 13/39/5 123/40/5 
f 123/40/5 122/38/5 14/37/5 
f 82/36/5 121/35/5 124/41/5 
f 124/41/5 85/42/5 82/36/5 
f 121/35/5 122/38/5 125/43/5 
f 125/43/5 124/41/5 121/35/5 
f 122/38/5 123/40/5 126/44/5 
f 126/44/5 125/43/5 122/38/5 
f 85/42/5 124/41/5 127/45/5 
f 127/45/5 88/46/5 85/42/5 
f 124/41/5 125/43/5 128/47/5 
f 128/47/5 127/45/5 124/41/5 
f 125/43/5 126/44/5 129/48/5 
f 129/48/5 128/47/5 125/43/5 
f 88/46/5 127/45/5 130/49/5 
f 130/49/5 91/50/5 88/46/5 
f 127/45/5 128/47/5 131/51/5 
f 131/51/5 130/49/5 127/45/5 
f 128/47/5 129/48/5 132/52/5 
f 132/52/5 131/51/5 128/47/5 
f 91/50/5 130/49/5 133/53/5 
f 134/54/5 135/55/5 136/56/5 
f 136/56/5 137/57/5 134/54/5 
f 132/52/5 138/58/5 131/51/5 
f 133/53/5 101/84/5 91/50/5 
f 139/59/5 140/60/5 141/61/5 
f 138/58/5 132/52/5 142/62/5 
f 142/62/5 143/63/5 138/58/5 
f 101/84/5 133/53/5 144/64/5 
f 140/60/5 139/59/5 145/66/5 
f 145/66/5 146/67/5 140/60/5 
f 142/62/5 147/68/5 143/63/5 
f 101/84/5 144/64/5 148/69/5 
f 148/69/5 110/65/5 101/84/5 
f 146/67/5 145/66/5 149/70/5 
f 149/70/5 150/71/5 146/67/5 
f 147/68/5 142/62/5 151/72/5 
f 110/65/5 148/69/5 152/73/5 
f 150/71/5 149/70/5 153/74/5 
f 151/72/5 154/75/5 147/68/5 
f 110/65/5 152/73/5 155/76/5 
f 155/76/5 119/77/5 110/65/5 
f 156/54/5 157/55/5 158/56/5 
f 158/56/5 159/57/5 156/54/5 
f 154/75/5 151/72/5 160/78/5 
f 160/78/5 161/79/5 154/75/5 
f 119/77/5 155/76/5 31/80/5 
f 31/80/5 32/81/5 119/77/5 
f 155/76/5 161/79/5 29/82/5 
f 29/82/5 31/80/5 155/76/5 
f 161/79/5 160/78/5 30/83/5 
f 30/83/5 29/82/5 161/79/5 
s 64
f 13/33/6 9/34/6 162/35/6 
f 162/35/6 123/36/6 13/33/6 
f 9/34/6 2/37/6 163/38/6 
f 163/38/6 162/35/6 9/34/6 
f 2/37/6 1/39/6 34/40/6 
f 34/40/6 163/38/6 2/37/6 
f 123/36/6 162/35/6 164/41/6 
f 164/41/6 126/42/6 123/36/6 
f 162/35/6 163/38/6 165/43/6 
f 165/43/6 164/41/6 162/35/6 
f 163/38/6 34/40/6 38/44/6 
f 38/44/6 165/43/6 163/38/6 
f 126/42/6 164/41/6 166/45/6 
f 166/45/6 129/46/6 126/42/6 
f 164/41/6 165/43/6 167/47/6 
f 167/47/6 166/45/6 164/41/6 
f 165/43/6 38/44/6 42/48/6 
f 42/48/6 167/47/6 165/43/6 
f 129/46/6 166/45/6 168/49/6 
f 168/49/6 132/50/6 129/46/6 
f 166/45/6 167/47/6 169/51/6 
f 169/51/6 168/49/6 166/45/6 
f 167/47/6 42/48/6 46/52/6 
f 46/52/6 169/51/6 167/47/6 
f 132/50/6 168/49/6 170/53/6 
f 171/54/6 172/55/6 173/56/6 
f 173/56/6 174/57/6 171/54/6 
f 46/52/6 175/58/6 169/51/6 
f 170/53/6 142/84/6 132/50/6 
f 176/59/6 177/60/6 178/61/6 
f 46/52/6 179/63/6 175/58/6 
f 142/84/6 170/53/6 180/64/6 
f 177/60/6 176/59/6 181/66/6 
f 179/63/6 46/52/6 61/72/6 
f 181/66/6 182/67/6 177/60/6 
f 61/72/6 183/68/6 179/63/6 
f 142/84/6 180/64/6 184/69/6 
f 184/69/6 151/65/6 142/84/6 
f 182/67/6 181/66/6 185/70/6 
f 185/70/6 186/71/6 182/67/6 
f 151/65/6 184/69/6 187/73/6 
f 186/71/6 185/70/6 188/74/6 
f 61/72/6 189/75/6 183/68/6 
f 151/65/6 187/73/6 190/76/6 
f 190/76/6 160/77/6 151/65/6 
f 191/54/6 192/55/6 193/56/6 
f 193/56/6 194/57/6 191/54/6 
f 189/75/6 61/72/6 73/78/6 
f 73/78/6 195/79/6 189/75/6 
f 160/77/6 190/76/6 26/80/6 
f 26/80/6 30/81/6 160/77/6 
f 190/76/6 195/79/6 20/82/6 
f 20/82/6 26/80/6 190/76/6 
f 195/79/6 73/78/6 17/83/6 
f 17/83/6 20/82/6 195/79/6 
s off
f 45/85/1 47/86/1 51/87/1 
f 51/87/1 50/88/1 45/85/1 
f 47/89/4 54/90/4 52/91/4 
f 52/91/4 51/92/4 47/89/4 
f 54/93/2 49/94/2 53/95/2 
f 53/95/2 52/96/2 54/93/2 
f 49/91/6 45/92/6 50/89/6 
f 50/89/6 53/90/6 49/91/6 
f 69/93/1 71/94/1 75/95/1 
f 75/95/1 74/96/1 69/93/1 
f 71/89/4 79/90/4 76/91/4 
f 76/91/4 75/92/4 71/89/4 
f 79/87/2 72/88/2 77/85/2 
f 77/85/2 76/86/2 79/87/2 
f 72/91/6 69/92/6 74/89/6 
f 74/89/6 77/90/6 72/91/6 
f 89/85/1 90/86/1 94/87/1 
f 94/87/1 93/88/1 89/85/1 
f 90/89/5 97/90/5 95/91/5 
f 95/91/5 94/92/5 90/89/5 
f 97/97/2 92/98/2 96/95/2 
f 96/95/2 95/96/2 97/97/2 
f 92/91/3 89/92/3 93/89/3 
f 93/89/3 96/90/3 92/91/3 
f 111/93/1 113/94/1 116/95/1 
f 116/95/1 115/96/1 111/93/1 
f 113/89/5 120/90/5 117/91/5 
f 117/91/5 116/92/5 113/89/5 
f 120/87/2 114/88/2 118/85/2 
f 118/85/2 117/86/2 120/87/2 
f 114/91/3 111/92/3 115/89/3 
f 115/89/3 118/90/3 114/91/3 
f 130/87/1 131/88/1 135/85/1 
f 135/85/1 134/86/1 130/87/1 
f 131/89/6 138/90/6 136/91/6 
f 136/91/6 135/92/6 131/89/6 
f 138/93/2 133/94/2 137/95/2 
f 137/95/2 136/96/2 138/93/2 
f 133/91/4 130/92/4 134/89/4 
f 134/89/4 137/90/4 133/91/4 
f 152/93/1 154/94/1 157/95/1 
f 157/95/1 156/96/1 152/93/1 
f 154/89/6 161/90/6 158/91/6 
f 158/91/6 157/92/6 154/89/6 
f 161/85/2 155/86/2 159/87/2 
f 159/87/2 158/88/2 161/85/2 
f 155/91/4 152/92/4 156/89/4 
f 156/89/4 159/90/4 155/91/4 
f 168/87/1 169/88/1 172/85/1 
f 172/85/1 171/86/1 168/87/1 
f 169/89/3 175/90/3 173/91/3 
f 173/91/3 172/92/3 169/89/3 
f 175/97/2 170/98/2 174/95/2 
f 174/95/2 173/96/2 175/97/2 
f 170/91/5 168/92/5 171/89/5 
f 171/89/5 174/90/5 170/91/5 
f 187/93/1 189/94/1 192/95/1 
f 192/95/1 191/96/1 187/93/1 
f 189/89/3 195/90/3 193/91/3 
f 193/91/3 192/92/3 189/89/3 
f 195/85/2 190/86/2 194/87/2 
f 194/87/2 193/88/2 195/85/2 
f 190/91/5 187/92/5 191/89/5 
f 191/89/5 194/90/5 190/91/5 
f 49/94/2 54/93/2 55/99/2 
f 55/99/2 57/100/2 49/94/2 
f 54/101/6 59/102/6 55/103/6 
f 62/104/6 55/103/6 59/102/6 
f 59/102/6 64/105/6 62/104/6 
f 66/106/6 62/104/6 64/105/6 
f 64/105/6 71/107/6 70/108/6 
f 70/108/6 66/106/6 64/105/6 
f 71/94/1 69/93/1 67/99/1 
f 67/99/1 70/100/1 71/94/1 
f 69/107/4 65/105/4 67/108/4 
f 65/105/4 60/102/4 63/109/4 
f 63/109/4 67/108/4 65/105/4 
f 56/110/4 63/109/4 60/102/4 
f 60/102/4 49/101/4 56/110/4 
f 57/103/4 56/110/4 49/101/4 
f 92/98/2 97/97/2 98/99/2 
f 98/99/2 100/100/2 92/98/2 
f 97/101/3 102/111/3 98/103/3 
f 104/112/3 98/103/3 102/111/3 
f 102/111/3 106/105/3 104/112/3 
f 108/106/3 104/112/3 106/105/3 
f 106/105/3 113/107/3 112/108/3 
f 112/108/3 108/106/3 106/105/3 
f 113/94/1 111/93/1 109/99/1 
f 109/99/1 112/100/1 113/94/1 
f 111/107/5 107/105/5 109/108/5 
f 107/105/5 103/102/5 105/113/5 
f 105/113/5 109/108/5 107/105/5 
f 99/110/5 105/113/5 103/102/5 
f 103/102/5 92/101/5 99/110/5 
f 100/103/5 99/110/5 92/101/5 
f 133/94/2 138/93/2 139/99/2 
f 139/99/2 141/100/2 133/94/2 
f 138/101/4 143/102/4 139/103/4 
f 145/104/4 139/103/4 143/102/4 
f 143/102/4 147/105/4 145/104/4 
f 149/106/4 145/104/4 147/105/4 
f 147/105/4 154/107/4 153/108/4 
f 153/108/4 149/106/4 147/105/4 
f 154/94/1 152/93/1 150/99/1 
f 150/99/1 153/100/1 154/94/1 
f 152/107/6 148/105/6 150/108/6 
f 148/105/6 144/111/6 146/113/6 
f 146/113/6 150/108/6 148/105/6 
f 140/110/6 146/113/6 144/111/6 
f 144/111/6 133/101/6 140/110/6 
f 141/103/6 140/110/6 133/101/6 
f 170/98/2 175/97/2 176/99/2 
f 176/99/2 178/100/2 170/98/2 
f 175/101/5 179/111/5 176/103/5 
f 181/112/5 176/103/5 179/111/5 
f 179/111/5 183/105/5 181/112/5 
f 185/106/5 181/112/5 183/105/5 
f 183/105/5 189/107/5 188/108/5 
f 188/108/5 185/106/5 183/105/5 
f 189/94/1 187/93/1 186/99/1 
f 186/99/1 188/100/1 189/94/1 
f 187/107/3 184/105/3 186/108/3 
f 184/105/3 180/102/3 182/113/3 
f 182/113/3 186/108/3 184/105/3 
f 177/110/3 182/113/3 180/102/3 
f 180/102/3 170/101/3 177/110/3 
f 178/103/3 177/110/3 170/101/3 
# 386 faces

#
# object base
#

v  -0.1250 -0.1250 0.0000
v  -0.1250 0.1250 0.0000
v  0.1250 0.1250 0.0000
v  0.1250 -0.1250 0.0000
v  -0.1250 -0.1250 0.2500
v  0.1250 -0.1250 0.2500
v  0.1250 0.1250 0.2500
v  -0.1250 0.1250 0.2500
# 8 vertices

vn 0.0000 0.0000 -1.0000
vn 0.0000 0.0000 1.0000
vn 0.0000 -1.0000 0.0000
vn 1.0000 0.0000 0.0000
vn 0.0000 1.0000 0.0000
vn -1.0000 0.0000 0.0000
# 6 vertex normals

vt 0.7500 0.8438 0.0000
vt 0.7500 0.7188 0.0000
vt 0.8750 0.7188 0.0000
vt 0.8750 0.8438 0.0000
vt 0.7500 0.5781 0.0000
vt 0.8750 0.5781 0.0000
vt 0.8750 0.7031 0.0000
vt 0.7500 0.7031 0.0000
# 8 texture coords

g base
s 2
f 196/114/7 197/115/7 198/116/7 
f 198/116/7 199/117/7 196/114/7 
s 4
f 200/115/8 201/116/8 202/117/8 
f 202/117/8 203/114/8 200/115/8 
s 8
f 196/118/9 199/119/9 201/120/9 
f 201/120/9 200/121/9 196/118/9 
s 16
f 199/118/10 198/119/10 202/120/10 
f 202/120/10 201/121/10 199/118/10 
s 32
f 198/118/11 197/119/11 203/120/11 
f 203/120/11 202/121/11 198/118/11 
s 64
f 197/118/12 196/119/12 200/120/12 
f 200/120/12 203/121/12 197/118/12 
# 12 faces

