# 3ds Max Wavefront OBJ Exporter v0.97b - (c)2007 guruware
# File Created: 31.12.2013 00:53:37

mtllib thaumatorium.mtl

#
# object Thaumatorium
#

v  -0.4375 -0.4375 0.1250
v  -0.4375 0.4375 0.1250
v  -0.4375 0.4375 0.0000
v  -0.4375 -0.4375 0.0000
v  0.4375 -0.4375 0.1250
v  0.4375 -0.4375 0.0000
v  0.4375 0.4375 0.1250
v  0.4375 0.4375 0.0000
v  0.3464 0.2000 0.1250
v  0.3464 -0.2000 0.1250
v  -0.0000 -0.4000 0.1250
v  -0.3464 -0.2000 0.1250
v  -0.3464 0.2000 0.1250
v  -0.0000 0.4000 0.1250
v  -0.1250 -0.3278 0.6250
v  -0.1250 -0.3278 0.3750
v  -0.1250 -0.5000 0.3750
v  -0.1250 -0.5000 0.6250
v  0.1250 -0.5000 0.3750
v  0.1250 -0.5000 0.6250
v  -0.0000 -0.4000 0.3750
v  0.1250 -0.3278 0.3750
v  0.1250 -0.3278 0.6250
v  0.3464 0.1250 0.6250
v  0.3464 -0.1250 0.6250
v  0.5000 -0.1250 0.6250
v  0.5000 0.1250 0.6250
v  0.5000 0.1250 0.3750
v  0.3464 0.1250 0.3750
v  0.5000 -0.1250 0.3750
v  0.3464 -0.1250 0.3750
v  -0.5000 -0.1625 0.6625
v  -0.3464 -0.1625 0.6625
v  -0.3464 0.1625 0.6625
v  -0.5000 0.1625 0.6625
v  -0.5000 0.1625 0.3375
v  -0.5000 -0.1625 0.3375
v  -0.3464 0.1625 0.3375
v  -0.3464 -0.1625 0.3375
v  -0.0000 0.4000 0.6250
v  0.1250 0.3278 0.6250
v  0.1250 0.5000 0.6250
v  -0.1250 0.5000 0.6250
v  -0.1250 0.3278 0.6250
v  0.1250 0.5000 0.3750
v  -0.1250 0.5000 0.3750
v  -0.1250 0.3278 0.3750
v  0.1250 0.3278 0.3750
v  -0.4330 0.2500 1.2500
v  -0.4330 0.2500 1.0000
v  -0.4330 -0.2500 1.0000
v  -0.4330 -0.2500 1.2500
v  -0.5000 -0.2500 1.2500
v  -0.5000 0.2500 1.2500
v  -0.5000 0.2500 1.7500
v  -0.4330 0.2500 1.7500
v  -0.5000 -0.2500 1.7500
v  -0.4330 -0.2500 1.7500
v  -0.1250 0.4278 1.6250
v  -0.0000 0.5000 1.6250
v  -0.1250 0.5000 1.6250
v  -0.1250 0.5000 1.3750
v  -0.1250 0.4278 1.3750
v  -0.0000 0.5000 1.3750
v  0.1250 0.5000 1.3750
v  0.1250 0.5000 1.6250
v  0.1250 0.4278 1.6250
v  0.1250 0.4278 1.3750
v  -0.1250 -0.5000 1.3750
v  -0.1250 -0.5000 1.6250
v  -0.1250 -0.4278 1.6250
v  -0.1250 -0.4278 1.3750
v  -0.0000 -0.5000 1.6250
v  -0.0000 -0.5000 1.3750
v  0.1250 -0.4278 1.6250
v  0.1250 -0.5000 1.6250
v  0.1250 -0.5000 1.3750
v  0.1250 -0.4278 1.3750
v  0.5000 -0.1250 1.3750
v  0.5000 -0.1250 1.6250
v  0.4330 -0.1250 1.6250
v  0.4330 -0.1250 1.3750
v  0.5000 0.1250 1.6250
v  0.4330 0.1250 1.6250
v  0.5000 0.1250 1.3750
v  0.4330 0.1250 1.3750
v  -0.0000 -0.4000 0.6250
v  -0.0000 -0.4000 0.8750
v  -0.3464 -0.2000 0.8750
v  -0.3464 0.2000 0.8750
v  -0.0000 0.4000 0.3750
v  -0.0000 0.4000 0.8750
v  0.3464 0.2000 0.8750
v  0.3464 -0.2000 0.8750
v  -0.0000 0.5000 1.0000
v  -0.0000 0.5000 1.7500
v  0.4330 0.2500 1.7500
v  0.4330 0.2500 1.0000
v  -0.0000 -0.5000 1.0000
v  0.4330 -0.2500 1.0000
v  0.4330 -0.2500 1.7500
v  -0.0000 -0.5000 1.7500
v  -0.0000 0.2113 2.0000
v  -0.1830 0.1057 2.0000
v  -0.1830 -0.1057 2.0000
v  -0.0000 -0.2113 2.0000
v  0.1830 -0.1057 2.0000
v  0.1830 0.1057 2.0000
v  -0.1830 -0.1057 1.8750
v  -0.1830 0.1057 1.8750
v  -0.0000 -0.2113 1.8750
v  0.1830 -0.1057 1.8750
v  0.1830 0.1057 1.8750
v  -0.0000 0.2113 1.8750
# 114 vertices

vn -1.0000 0.0000 0.0000
vn -0.0000 -1.0000 0.0000
vn 1.0000 -0.0000 0.0000
vn 0.0000 1.0000 0.0000
vn 0.0000 0.0000 1.0000
vn -1.0000 -0.0000 0.0000
vn 0.0000 -1.0000 -0.0000
vn -0.0000 0.0000 -1.0000
vn 0.0000 0.0000 -1.0000
vn 1.0000 0.0000 -0.0000
vn -0.0000 1.0000 0.0000
vn 0.0000 -1.0000 0.0000
vn -0.0000 0.0000 1.0000
vn -0.0000 -0.0000 -1.0000
vn 0.0000 1.0000 -0.0000
vn 0.0000 -0.0000 -1.0000
vn -1.0000 0.0000 -0.0000
vn -0.5000 -0.8660 0.0000
vn -0.5000 -0.8660 -0.0000
vn -0.5000 0.8660 0.0000
vn -0.5000 0.8660 -0.0000
vn 0.5000 0.8660 0.0000
vn 0.5000 0.8660 -0.0000
vn 0.5000 -0.8660 -0.0000
vn 0.5000 -0.8660 0.0000
vn -0.0000 -0.0000 1.0000
vn 0.0000 -0.0000 1.0000
vn -0.8220 0.0000 -0.5695
vn -0.0000 1.0000 -0.0000
vn -0.4472 0.0000 0.8944
vn -0.2236 -0.3873 0.8944
vn 0.2236 -0.3873 0.8944
vn 0.4472 0.0000 0.8944
vn 0.2236 0.3873 0.8944
vn -0.2236 0.3873 0.8944
vn 1.0000 0.0000 0.0000
vn -0.4110 0.7119 -0.5695
vn -0.4110 -0.7119 -0.5695
vn 0.4110 -0.7119 -0.5695
vn 0.8220 -0.0000 -0.5695
vn 0.8220 0.0000 -0.5695
vn 0.4110 0.7119 -0.5695
# 42 vertex normals

vt 0.2344 0.9063 0.0000
vt 0.0156 0.9063 0.0000
vt 0.0156 0.8750 0.0000
vt 0.2344 0.8750 0.0000
vt 0.8438 0.5938 0.0000
vt 0.6875 0.5701 0.0000
vt 0.7813 0.5701 0.0000
vt 0.8281 0.4844 0.0000
vt 0.8438 0.3750 0.0000
vt 0.7813 0.3996 0.0000
vt 0.6250 0.3750 0.0000
vt 0.6875 0.3996 0.0000
vt 0.6406 0.4844 0.0000
vt 0.6250 0.5938 0.0000
vt 0.4688 0.9219 0.0000
vt 0.3750 0.9219 0.0000
vt 0.3750 0.8750 0.0000
vt 0.4688 0.8750 0.0000
vt 0.3783 0.7500 0.0000
vt 0.4688 0.7500 0.0000
vt 0.4688 0.8438 0.0000
vt 0.3750 0.8438 0.0000
vt 0.4219 0.9063 0.0000
vt 0.5000 0.7500 0.0000
vt 0.6250 0.7500 0.0000
vt 0.6250 0.8750 0.0000
vt 0.5000 0.8750 0.0000
vt 0.4844 0.3438 0.0000
vt 0.4844 0.2656 0.0000
vt 0.6719 0.2656 0.0000
vt 0.6719 0.3438 0.0000
vt 0.0469 0.9375 0.0000
vt 0.1875 0.9375 0.0000
vt 0.1875 0.9531 0.0000
vt 0.0469 0.9531 0.0000
vt 0.0156 0.8594 0.0000
vt 0.0156 0.6719 0.0000
vt 0.2031 0.6719 0.0000
vt 0.2031 0.8594 0.0000
vt 0.1079 0.9063 0.0000
vt 0.0767 0.8750 0.0000
vt 0.1080 0.8750 0.0000
vt 0.1701 0.8750 0.0000
vt 0.1700 0.9063 0.0000
vt 0.1406 0.1719 0.0000
vt 0.2031 0.1719 0.0000
vt 0.2031 0.2344 0.0000
vt 0.0469 0.2344 0.0000
vt 0.1406 0.0781 0.0000
vt 0.0469 0.0166 0.0000
vt 0.2031 0.0781 0.0000
vt 0.2031 0.0166 0.0000
vt 0.4531 0.2344 0.0000
vt 0.2969 0.2344 0.0000
vt 0.3125 0.1719 0.0000
vt 0.4375 0.1719 0.0000
vt 0.4531 0.0156 0.0000
vt 0.4375 0.0781 0.0000
vt 0.3125 0.0781 0.0000
vt 0.2969 0.0156 0.0000
vt 0.7656 0.8750 0.0000
vt 0.6406 0.8750 0.0000
vt 0.6406 0.8125 0.0000
vt 0.7656 0.8125 0.0000
vt 0.2188 0.2656 0.0000
vt 0.0313 0.2656 0.0000
vt 0.0313 0.3447 0.0000
vt 0.0313 0.4844 0.0000
vt 0.2188 0.4844 0.0000
vt 0.2188 0.4531 0.0000
vt 0.1563 0.4531 0.0000
vt 0.1563 0.3750 0.0000
vt 0.2188 0.3750 0.0000
vt 0.4230 0.8438 0.0000
vt 0.4224 0.7500 0.0000
vt 0.0313 0.3432 0.0000
vt 0.2980 0.6250 0.0000
vt 0.3288 0.5717 0.0000
vt 0.3904 0.5717 0.0000
vt 0.4212 0.6250 0.0000
vt 0.3904 0.6784 0.0000
vt 0.3288 0.6784 0.0000
vt 0.6406 0.7656 0.0000
vt 0.7656 0.7656 0.0000
vt 0.5156 0.2344 0.0000
vt 0.5156 0.0156 0.0000
vt 0.6719 0.0156 0.0000
vt 0.6719 0.2344 0.0000
vt 0.2813 0.2656 0.0000
vt 0.4688 0.2656 0.0000
vt 0.4688 0.4844 0.0000
vt 0.2813 0.4844 0.0000
# 92 texture coords

g Thaumatorium
usemtl wire_214228153
s off
f 1/1/1 2/2/1 3/3/1 
f 3/3/1 4/4/1 1/1/1 
f 5/1/2 1/2/2 4/3/2 
f 4/3/2 6/4/2 5/1/2 
f 7/1/3 5/2/3 6/3/3 
f 6/3/3 8/4/3 7/1/3 
f 2/1/4 7/2/4 8/3/4 
f 8/3/4 3/4/4 2/1/4 
f 5/5/5 9/6/5 10/7/5 
f 5/5/5 10/7/5 11/8/5 
f 1/9/5 5/5/5 11/8/5 
f 1/9/5 11/8/5 12/10/5 
f 2/11/5 1/9/5 12/10/5 
f 2/11/5 12/10/5 13/12/5 
f 2/11/5 13/12/5 14/13/5 
f 7/14/5 2/11/5 14/13/5 
f 7/14/5 14/13/5 9/6/5 
f 7/14/5 9/6/5 5/5/5 
f 15/15/6 16/16/6 17/17/6 
f 17/17/6 18/18/6 15/15/6 
f 17/19/7 19/20/7 20/21/7 
f 20/21/7 18/22/7 17/19/7 
f 21/23/8 22/18/8 19/15/8 
f 21/23/8 19/15/8 17/16/8 
f 21/23/9 17/16/9 16/17/9 
f 23/18/10 20/15/10 19/16/10 
f 19/16/10 22/17/10 23/18/10 
f 24/15/5 25/16/5 26/17/5 
f 26/17/5 27/18/5 24/15/5 
f 28/16/11 29/17/11 24/18/11 
f 24/18/11 27/15/11 28/16/11 
f 26/21/10 30/22/10 28/19/10 
f 28/19/10 27/20/10 26/21/10 
f 30/17/7 26/18/7 25/15/7 
f 25/15/12 31/16/12 30/17/12 
f 32/16/13 33/17/13 34/18/13 
f 34/18/13 35/15/13 32/16/13 
f 36/24/1 37/25/1 32/26/1 
f 32/26/1 35/27/1 36/24/1 
f 34/15/4 38/16/4 36/17/4 
f 36/17/4 35/18/4 34/15/4 
f 33/18/2 32/15/2 37/16/2 
f 37/16/2 39/17/2 33/18/2 
f 31/17/14 29/18/14 28/15/14 
f 28/15/14 30/16/14 31/17/14 
f 40/23/5 41/18/5 42/15/5 
f 40/23/5 42/15/5 43/16/5 
f 40/23/5 43/16/5 44/17/5 
f 45/22/15 46/19/15 43/20/15 
f 43/20/15 42/21/15 45/22/15 
f 44/18/1 43/15/1 46/16/1 
f 46/16/1 47/17/1 44/18/1 
f 41/15/3 48/16/3 45/17/3 
f 45/17/3 42/18/3 41/15/3 
f 38/15/16 39/16/16 37/17/16 
f 37/17/16 36/18/16 38/15/16 
f 49/28/1 50/29/1 51/30/1 
f 51/30/1 52/31/1 49/28/1 
f 53/32/9 54/33/9 49/34/9 
f 49/34/9 52/35/9 53/32/9 
f 54/32/4 55/33/4 56/34/4 
f 56/34/4 49/35/4 54/32/4 
f 55/34/5 57/35/5 58/32/5 
f 58/32/5 56/33/5 55/34/5 
f 53/35/12 52/32/12 58/33/12 
f 58/33/12 57/34/12 53/35/12 
f 55/36/17 54/37/17 53/38/17 
f 53/38/17 57/39/17 55/36/17 
f 59/40/5 60/41/5 61/42/5 
f 62/43/1 63/44/1 59/40/1 
f 59/40/1 61/42/1 62/43/1 
f 63/40/9 62/42/9 64/41/9 
f 65/44/3 66/40/3 67/42/3 
f 67/42/3 68/43/3 65/44/3 
f 67/40/5 66/42/5 60/41/5 
f 68/40/9 64/41/9 65/42/9 
f 69/44/6 70/40/6 71/42/6 
f 71/42/6 72/43/6 69/44/6 
f 71/40/5 70/42/5 73/41/5 
f 72/40/9 74/41/9 69/42/9 
f 75/40/5 73/41/5 76/42/5 
f 77/43/10 78/44/10 75/40/10 
f 75/40/10 76/42/10 77/43/10 
f 78/40/9 77/42/9 74/41/9 
f 79/44/7 80/40/7 81/42/7 
f 81/42/12 82/43/12 79/44/12 
f 83/40/5 84/42/5 81/43/5 
f 81/43/5 80/44/5 83/40/5 
f 85/43/11 86/44/11 84/40/11 
f 84/40/11 83/42/11 85/43/11 
f 85/42/9 79/43/9 82/44/9 
f 82/44/9 86/40/9 85/42/9 
f 85/20/10 83/21/10 80/22/10 
f 80/22/10 79/19/10 85/20/10 
f 15/45/18 87/46/18 88/47/18 
f 15/45/19 88/47/19 89/48/19 
f 16/49/18 15/45/18 89/48/18 
f 16/49/19 89/48/19 12/50/19 
f 21/51/19 16/49/19 12/50/19 
f 11/52/18 21/51/18 12/50/18 
f 89/53/1 90/54/1 34/55/1 
f 89/53/1 34/55/1 33/56/1 
f 12/57/1 89/53/1 33/56/1 
f 12/57/1 33/56/1 39/58/1 
f 38/59/1 34/55/1 90/54/1 
f 38/59/1 90/54/1 13/60/1 
f 39/58/1 38/59/1 13/60/1 
f 12/57/1 39/58/1 13/60/1 
f 47/49/20 91/51/20 14/52/20 
f 47/49/20 14/52/20 13/50/20 
f 90/48/20 92/47/20 40/46/20 
f 90/48/21 40/46/21 44/45/21 
f 13/50/20 90/48/20 44/45/20 
f 47/49/20 13/50/20 44/45/20 
f 41/45/22 40/46/22 92/47/22 
f 41/45/22 92/47/22 93/48/22 
f 48/49/22 41/45/22 93/48/22 
f 48/49/22 93/48/22 9/50/22 
f 91/51/23 48/49/23 9/50/23 
f 14/52/22 91/51/22 9/50/22 
f 22/49/24 21/51/24 11/52/24 
f 22/49/24 11/52/24 10/50/24 
f 94/48/25 88/47/25 87/46/25 
f 94/48/24 87/46/24 23/45/24 
f 10/50/25 94/48/25 23/45/25 
f 22/49/25 10/50/25 23/45/25 
f 20/16/26 23/17/26 87/23/26 
f 20/16/5 87/23/5 15/18/5 
f 20/16/27 15/18/27 18/15/27 
f 51/61/28 50/62/28 90/63/28 
f 90/63/28 89/64/28 51/61/28 
f 45/16/16 48/17/16 91/23/16 
f 45/16/8 91/23/8 47/18/8 
f 45/16/14 47/18/14 46/15/14 
f 95/65/20 50/66/20 49/67/20 
f 56/68/20 96/69/20 60/70/20 
f 56/68/20 60/70/20 59/71/20 
f 49/67/21 56/68/21 59/71/21 
f 49/67/20 59/71/20 63/72/20 
f 95/65/21 49/67/21 63/72/21 
f 95/65/20 63/72/20 64/73/20 
f 95/65/22 64/73/22 68/72/22 
f 67/71/22 60/70/22 96/69/22 
f 67/71/22 96/69/22 97/68/22 
f 68/72/22 67/71/22 97/68/22 
f 95/65/23 68/72/23 97/68/23 
f 95/65/22 97/68/22 98/66/22 
f 60/74/15 66/22/15 65/19/15 
f 61/21/15 60/74/15 65/19/15 
f 61/21/4 65/19/4 64/75/4 
f 62/20/29 61/21/29 64/75/29 
f 78/72/25 74/73/25 99/65/25 
f 99/65/25 100/66/25 101/68/25 
f 78/72/25 99/65/25 101/68/25 
f 101/68/25 102/69/25 73/70/25 
f 101/68/25 73/70/25 75/71/25 
f 78/72/24 101/68/24 75/71/24 
f 52/76/18 51/66/18 99/65/18 
f 99/65/18 74/73/18 72/72/18 
f 71/71/18 73/70/18 102/69/18 
f 71/71/18 102/69/18 58/68/18 
f 72/72/19 71/71/19 58/68/19 
f 99/65/18 72/72/18 58/68/18 
f 52/76/19 99/65/19 58/68/19 
f 73/74/7 70/22/7 69/19/7 
f 76/21/2 73/74/2 69/19/2 
f 76/21/2 69/19/2 74/75/2 
f 77/20/7 76/21/7 74/75/7 
f 103/77/5 104/78/5 105/79/5 
f 105/79/5 106/80/5 107/81/5 
f 103/77/5 105/79/5 107/81/5 
f 108/82/5 103/77/5 107/81/5 
f 58/62/30 109/83/30 110/84/30 
f 110/84/30 56/61/30 58/62/30 
f 102/62/31 111/83/31 109/84/31 
f 109/84/31 58/61/31 102/62/31 
f 101/62/32 112/83/32 111/84/32 
f 111/84/32 102/61/32 101/62/32 
f 97/62/33 113/83/33 112/84/33 
f 112/84/33 101/61/33 97/62/33 
f 96/62/34 114/83/34 113/84/34 
f 113/84/34 97/61/34 96/62/34 
f 56/62/35 110/83/35 114/84/35 
f 114/84/35 96/61/35 56/62/35 
f 109/18/1 105/15/1 104/16/1 
f 104/16/1 110/17/1 109/18/1 
f 111/18/18 106/15/18 105/16/18 
f 105/16/18 109/17/18 111/18/18 
f 112/18/25 107/15/25 106/16/25 
f 106/16/25 111/17/25 112/18/25 
f 113/18/36 108/15/36 107/16/36 
f 107/16/36 112/17/36 113/18/36 
f 114/18/22 103/15/22 108/16/22 
f 108/16/22 113/17/22 114/18/22 
f 110/18/20 104/15/20 103/16/20 
f 103/16/20 114/17/20 110/18/20 
f 95/62/37 92/63/37 90/64/37 
f 90/64/37 50/61/37 95/62/37 
f 88/64/38 99/61/38 51/62/38 
f 51/62/38 89/63/38 88/64/38 
f 94/64/39 100/61/39 99/62/39 
f 99/62/39 88/63/39 94/64/39 
f 93/64/40 98/61/40 100/62/40 
f 100/62/41 94/63/41 93/64/41 
f 94/85/36 10/86/36 9/87/36 
f 9/87/36 93/88/36 94/85/36 
f 100/89/3 98/90/3 97/91/3 
f 97/91/36 101/92/36 100/89/36 
f 8/11/9 6/9/9 4/5/9 
f 4/5/9 3/14/9 8/11/9 
f 29/19/6 31/20/6 25/21/6 
f 25/21/6 24/22/6 29/19/6 
f 84/22/6 86/19/6 82/20/6 
f 82/20/17 81/21/17 84/22/17 
f 95/61/42 98/62/42 93/63/42 
f 93/63/42 92/64/42 95/61/42 
# 216 faces

